<svg xmlns="http://www.w3.org/2000/svg" width="100%" viewBox="0 0 360 300" role="img" aria-labelledby="signal-title signal-description">
  <title id="signal-title">Makaren Signal history</title>
  <desc id="signal-description">A 52-week contribution waveform with peak and current-week markers.</desc>
  <style>
      :root { color-scheme: light; }
      .sans { font-family: -apple-system, BlinkMacSystemFont, 'Segoe UI', sans-serif; }
      .mono { font-family: ui-monospace, SFMono-Regular, Consolas, 'Liberation Mono', monospace; }
      .label { fill: #5E6B78; font-size: 11px; letter-spacing: 2px; }
      .copy { fill: #17212B; }
      .muted { fill: #5E6B78; }
      .signal { fill: #087F8C; }
      .line { stroke: #CBD5DD; }
      .final-opacity { opacity: var(--final-opacity, 1); }
      .reveal { animation: reveal var(--reveal-duration, .32s) ease-out var(--reveal-delay, 0s) both; }
      .draw { animation: draw var(--draw-duration, 1.5s) ease-out var(--draw-delay, 0s) both; }
      .connection { vector-effect: non-scaling-stroke; }
      @keyframes reveal { from { opacity: 0; } to { opacity: var(--final-opacity, 1); } }
      @keyframes draw { from { stroke-dashoffset: 1; } to { stroke-dashoffset: 0; } }
      @media (prefers-reduced-motion: reduce) {
        .motion { display: none !important; }
        .reveal { animation: none !important; opacity: var(--final-opacity, 1) !important; }
        .draw { animation: none !important; stroke-dashoffset: 0 !important; }
      }

      .motion { display: none !important; }
      .reveal { animation: none !important; opacity: var(--final-opacity, 1) !important; }
      .draw { animation: none !important; stroke-dashoffset: 0 !important; }

    </style>
  <rect width="360" height="300" fill="#F7F9FB" rx="12"/>
<g id="history-static"><text class="sans copy" x="24" y="46" font-size="23" font-weight="650" letter-spacing="1">SIGNAL HISTORY</text><text class="mono muted" x="336" y="68" font-size="9" text-anchor="end" letter-spacing="1">52 WEEKS / ROBUST LOG SCALE</text><line id="history-baseline" x1="28.00" y1="218" x2="332.00" y2="218" stroke="#CBD5DD"/><line class="month-tick" x1="28.00" y1="223" x2="28.00" y2="228" stroke="#CBD5DD"/><text class="mono muted month-label" x="28.00" y="244" font-size="8">SEP</text><line class="month-tick" x1="51.84" y1="223" x2="51.84" y2="228" stroke="#CBD5DD"/><line class="month-tick" x1="81.65" y1="223" x2="81.65" y2="228" stroke="#CBD5DD"/><text class="mono muted month-label" x="81.65" y="244" font-size="8">NOV</text><line class="month-tick" x1="105.49" y1="223" x2="105.49" y2="228" stroke="#CBD5DD"/><line class="month-tick" x1="129.33" y1="223" x2="129.33" y2="228" stroke="#CBD5DD"/><text class="mono muted month-label" x="129.33" y="244" font-size="8">JAN</text><line class="month-tick" x1="159.14" y1="223" x2="159.14" y2="228" stroke="#CBD5DD"/><line class="month-tick" x1="182.98" y1="223" x2="182.98" y2="228" stroke="#CBD5DD"/><text class="mono muted month-label" x="182.98" y="244" font-size="8">MAR</text><line class="month-tick" x1="206.82" y1="223" x2="206.82" y2="228" stroke="#CBD5DD"/><line class="month-tick" x1="230.67" y1="223" x2="230.67" y2="228" stroke="#CBD5DD"/><text class="mono muted month-label" x="230.67" y="244" font-size="8">MAY</text><line class="month-tick" x1="260.47" y1="223" x2="260.47" y2="228" stroke="#CBD5DD"/><line class="month-tick" x1="284.31" y1="223" x2="284.31" y2="228" stroke="#CBD5DD"/><text class="mono muted month-label" x="284.31" y="244" font-size="8">JUL</text><line class="month-tick" x1="314.12" y1="223" x2="314.12" y2="228" stroke="#CBD5DD"/></g><g id="history-data" data-animation="cyclic-reveal" data-build-duration="3.5s" data-hold-duration="5.0s" data-collapse-duration="1.2s" data-pause-duration="0.3s" data-cycle="10.0s"><path id="history-area" d="M 28.00 218.00 C 28.99 218.00 31.97 218.00 33.96 218.00 C 35.95 218.00 37.93 218.00 39.92 218.00 C 41.91 218.00 43.90 218.00 45.88 218.00 C 47.87 218.00 49.86 218.00 51.84 218.00 C 53.83 218.00 55.82 218.00 57.80 218.00 C 59.79 218.00 61.78 218.00 63.76 218.00 C 65.75 218.00 67.74 218.00 69.73 218.00 C 71.71 218.00 73.70 218.00 75.69 218.00 C 77.67 218.00 79.66 218.00 81.65 218.00 C 83.63 218.00 85.62 218.00 87.61 218.00 C 89.59 218.00 91.58 218.00 93.57 218.00 C 95.56 201.05 97.54 122.06 99.53 116.27 C 101.52 116.27 103.50 172.11 105.49 183.28 C 107.48 183.28 109.46 183.28 111.45 183.28 C 113.44 181.76 115.42 176.88 117.41 174.19 C 119.40 171.50 121.39 167.14 123.37 167.14 C 125.36 168.65 127.35 183.28 129.33 183.28 C 131.32 177.86 133.31 137.29 135.29 134.60 C 137.28 134.60 139.27 163.48 141.25 167.14 C 143.24 167.14 145.23 163.25 147.22 156.50 C 149.20 149.75 151.19 126.65 153.18 126.65 C 155.16 126.65 157.15 156.50 159.14 156.50 C 161.12 153.06 163.11 110.35 165.10 106.00 C 167.08 106.00 169.07 130.38 171.06 130.38 C 173.05 130.38 175.03 106.00 177.02 106.00 C 179.01 112.13 180.99 159.42 182.98 167.14 C 184.97 167.14 186.95 158.41 188.94 152.28 C 190.93 146.15 192.92 130.38 194.90 130.38 C 196.89 131.08 198.88 149.20 200.86 156.50 C 202.85 163.80 204.84 163.94 206.82 174.19 C 208.81 184.44 210.80 218.00 212.78 218.00 C 214.77 216.82 216.76 167.14 218.75 167.14 C 220.73 167.14 222.72 209.52 224.71 218.00 C 226.69 218.00 228.68 218.00 230.67 218.00 C 232.65 212.21 234.64 183.28 236.63 183.28 C 238.61 183.28 240.60 218.00 242.59 218.00 C 244.58 211.66 246.56 151.02 248.55 145.23 C 250.54 145.23 252.52 176.94 254.51 183.28 C 256.50 183.28 258.48 183.28 260.47 183.28 C 262.46 176.94 264.44 154.37 266.43 145.23 C 268.42 136.09 270.41 132.11 272.39 128.46 C 274.38 124.81 276.37 127.07 278.35 123.32 C 280.34 119.58 282.33 108.89 284.31 106.00 C 286.30 106.00 288.29 106.00 290.27 106.00 C 292.26 106.00 294.25 106.00 296.24 106.00 C 298.22 106.00 300.21 106.00 302.20 106.00 C 304.18 106.58 306.17 106.00 308.16 109.47 C 310.14 115.51 312.13 138.73 314.12 142.22 C 316.10 142.22 318.09 130.38 320.08 130.38 C 322.07 131.43 324.05 148.56 326.04 148.56 C 328.03 147.13 331.01 126.24 332.00 121.78 L 332.00 218 L 28.00 218 Z" fill="#087F8C" opacity="0.055"/><path id="history-wave" data-week-count="52" d="M 28.00 218.00 C 28.99 218.00 31.97 218.00 33.96 218.00 C 35.95 218.00 37.93 218.00 39.92 218.00 C 41.91 218.00 43.90 218.00 45.88 218.00 C 47.87 218.00 49.86 218.00 51.84 218.00 C 53.83 218.00 55.82 218.00 57.80 218.00 C 59.79 218.00 61.78 218.00 63.76 218.00 C 65.75 218.00 67.74 218.00 69.73 218.00 C 71.71 218.00 73.70 218.00 75.69 218.00 C 77.67 218.00 79.66 218.00 81.65 218.00 C 83.63 218.00 85.62 218.00 87.61 218.00 C 89.59 218.00 91.58 218.00 93.57 218.00 C 95.56 201.05 97.54 122.06 99.53 116.27 C 101.52 116.27 103.50 172.11 105.49 183.28 C 107.48 183.28 109.46 183.28 111.45 183.28 C 113.44 181.76 115.42 176.88 117.41 174.19 C 119.40 171.50 121.39 167.14 123.37 167.14 C 125.36 168.65 127.35 183.28 129.33 183.28 C 131.32 177.86 133.31 137.29 135.29 134.60 C 137.28 134.60 139.27 163.48 141.25 167.14 C 143.24 167.14 145.23 163.25 147.22 156.50 C 149.20 149.75 151.19 126.65 153.18 126.65 C 155.16 126.65 157.15 156.50 159.14 156.50 C 161.12 153.06 163.11 110.35 165.10 106.00 C 167.08 106.00 169.07 130.38 171.06 130.38 C 173.05 130.38 175.03 106.00 177.02 106.00 C 179.01 112.13 180.99 159.42 182.98 167.14 C 184.97 167.14 186.95 158.41 188.94 152.28 C 190.93 146.15 192.92 130.38 194.90 130.38 C 196.89 131.08 198.88 149.20 200.86 156.50 C 202.85 163.80 204.84 163.94 206.82 174.19 C 208.81 184.44 210.80 218.00 212.78 218.00 C 214.77 216.82 216.76 167.14 218.75 167.14 C 220.73 167.14 222.72 209.52 224.71 218.00 C 226.69 218.00 228.68 218.00 230.67 218.00 C 232.65 212.21 234.64 183.28 236.63 183.28 C 238.61 183.28 240.60 218.00 242.59 218.00 C 244.58 211.66 246.56 151.02 248.55 145.23 C 250.54 145.23 252.52 176.94 254.51 183.28 C 256.50 183.28 258.48 183.28 260.47 183.28 C 262.46 176.94 264.44 154.37 266.43 145.23 C 268.42 136.09 270.41 132.11 272.39 128.46 C 274.38 124.81 276.37 127.07 278.35 123.32 C 280.34 119.58 282.33 108.89 284.31 106.00 C 286.30 106.00 288.29 106.00 290.27 106.00 C 292.26 106.00 294.25 106.00 296.24 106.00 C 298.22 106.00 300.21 106.00 302.20 106.00 C 304.18 106.58 306.17 106.00 308.16 109.47 C 310.14 115.51 312.13 138.73 314.12 142.22 C 316.10 142.22 318.09 130.38 320.08 130.38 C 322.07 131.43 324.05 148.56 326.04 148.56 C 328.03 147.13 331.01 126.24 332.00 121.78" fill="none" stroke="#087F8C" stroke-width="2" stroke-linecap="round" stroke-linejoin="round"/><circle class="weekly-point" data-week="0" data-total="0" data-active-days="0" cx="28.00" cy="218.00" r="1.6" fill="#087F8C" opacity="0.5"/><circle class="weekly-point" data-week="1" data-total="0" data-active-days="0" cx="33.96" cy="218.00" r="1.6" fill="#087F8C" opacity="0.5"/><circle class="weekly-point" data-week="2" data-total="0" data-active-days="0" cx="39.92" cy="218.00" r="1.6" fill="#087F8C" opacity="0.5"/><circle class="weekly-point" data-week="3" data-total="0" data-active-days="0" cx="45.88" cy="218.00" r="1.6" fill="#087F8C" opacity="0.5"/><circle class="weekly-point" data-week="4" data-total="0" data-active-days="0" cx="51.84" cy="218.00" r="1.6" fill="#087F8C" opacity="0.5"/><circle class="weekly-point" data-week="5" data-total="0" data-active-days="0" cx="57.80" cy="218.00" r="1.6" fill="#087F8C" opacity="0.5"/><circle class="weekly-point" data-week="6" data-total="0" data-active-days="0" cx="63.76" cy="218.00" r="1.6" fill="#087F8C" opacity="0.5"/><circle class="weekly-point" data-week="7" data-total="0" data-active-days="0" cx="69.73" cy="218.00" r="1.6" fill="#087F8C" opacity="0.5"/><circle class="weekly-point" data-week="8" data-total="0" data-active-days="0" cx="75.69" cy="218.00" r="1.6" fill="#087F8C" opacity="0.5"/><circle class="weekly-point" data-week="9" data-total="0" data-active-days="0" cx="81.65" cy="218.00" r="1.6" fill="#087F8C" opacity="0.5"/><circle class="weekly-point" data-week="10" data-total="0" data-active-days="0" cx="87.61" cy="218.00" r="1.6" fill="#087F8C" opacity="0.5"/><circle class="weekly-point" data-week="11" data-total="0" data-active-days="0" cx="93.57" cy="218.00" r="1.6" fill="#087F8C" opacity="0.5"/><circle class="weekly-point" data-week="12" data-total="24" data-active-days="4" cx="99.53" cy="116.27" r="1.6" fill="#087F8C" opacity="0.5"/><circle class="weekly-point" data-week="13" data-total="2" data-active-days="1" cx="105.49" cy="183.28" r="1.6" fill="#087F8C" opacity="0.5"/><circle class="weekly-point" data-week="14" data-total="2" data-active-days="2" cx="111.45" cy="183.28" r="1.6" fill="#087F8C" opacity="0.5"/><circle class="weekly-point" data-week="15" data-total="3" data-active-days="3" cx="117.41" cy="174.19" r="1.6" fill="#087F8C" opacity="0.5"/><circle class="weekly-point" data-week="16" data-total="4" data-active-days="2" cx="123.37" cy="167.14" r="1.6" fill="#087F8C" opacity="0.5"/><circle class="weekly-point" data-week="17" data-total="2" data-active-days="2" cx="129.33" cy="183.28" r="1.6" fill="#087F8C" opacity="0.5"/><circle class="weekly-point" data-week="18" data-total="13" data-active-days="4" cx="135.29" cy="134.60" r="1.6" fill="#087F8C" opacity="0.5"/><circle class="weekly-point" data-week="19" data-total="4" data-active-days="2" cx="141.25" cy="167.14" r="1.6" fill="#087F8C" opacity="0.5"/><circle class="weekly-point" data-week="20" data-total="6" data-active-days="3" cx="147.22" cy="156.50" r="1.6" fill="#087F8C" opacity="0.5"/><circle class="weekly-point" data-week="21" data-total="17" data-active-days="6" cx="153.18" cy="126.65" r="1.6" fill="#087F8C" opacity="0.5"/><circle class="weekly-point" data-week="22" data-total="6" data-active-days="3" cx="159.14" cy="156.50" r="1.6" fill="#087F8C" opacity="0.5"/><circle class="weekly-point" data-week="23" data-total="37" data-active-days="6" cx="165.10" cy="106.00" r="1.6" fill="#087F8C" opacity="0.5"/><circle class="weekly-point" data-week="24" data-total="15" data-active-days="6" cx="171.06" cy="130.38" r="1.6" fill="#087F8C" opacity="0.5"/><circle class="weekly-point" data-week="25" data-total="34" data-active-days="4" cx="177.02" cy="106.00" r="1.6" fill="#087F8C" opacity="0.5"/><circle class="weekly-point" data-week="26" data-total="4" data-active-days="2" cx="182.98" cy="167.14" r="1.6" fill="#087F8C" opacity="0.5"/><circle class="weekly-point" data-week="27" data-total="7" data-active-days="3" cx="188.94" cy="152.28" r="1.6" fill="#087F8C" opacity="0.5"/><circle class="weekly-point" data-week="28" data-total="15" data-active-days="3" cx="194.90" cy="130.38" r="1.6" fill="#087F8C" opacity="0.5"/><circle class="weekly-point" data-week="29" data-total="6" data-active-days="2" cx="200.86" cy="156.50" r="1.6" fill="#087F8C" opacity="0.5"/><circle class="weekly-point" data-week="30" data-total="3" data-active-days="3" cx="206.82" cy="174.19" r="1.6" fill="#087F8C" opacity="0.5"/><circle class="weekly-point" data-week="31" data-total="0" data-active-days="0" cx="212.78" cy="218.00" r="1.6" fill="#087F8C" opacity="0.5"/><circle class="weekly-point" data-week="32" data-total="4" data-active-days="2" cx="218.75" cy="167.14" r="1.6" fill="#087F8C" opacity="0.5"/><circle class="weekly-point" data-week="33" data-total="0" data-active-days="0" cx="224.71" cy="218.00" r="1.6" fill="#087F8C" opacity="0.5"/><circle class="weekly-point" data-week="34" data-total="0" data-active-days="0" cx="230.67" cy="218.00" r="1.6" fill="#087F8C" opacity="0.5"/><circle class="weekly-point" data-week="35" data-total="2" data-active-days="1" cx="236.63" cy="183.28" r="1.6" fill="#087F8C" opacity="0.5"/><circle class="weekly-point" data-week="36" data-total="0" data-active-days="0" cx="242.59" cy="218.00" r="1.6" fill="#087F8C" opacity="0.5"/><circle class="weekly-point" data-week="37" data-total="9" data-active-days="2" cx="248.55" cy="145.23" r="1.6" fill="#087F8C" opacity="0.5"/><circle class="weekly-point" data-week="38" data-total="2" data-active-days="2" cx="254.51" cy="183.28" r="1.6" fill="#087F8C" opacity="0.5"/><circle class="weekly-point" data-week="39" data-total="2" data-active-days="2" cx="260.47" cy="183.28" r="1.6" fill="#087F8C" opacity="0.5"/><circle class="weekly-point" data-week="40" data-total="9" data-active-days="4" cx="266.43" cy="145.23" r="1.6" fill="#087F8C" opacity="0.5"/><circle class="weekly-point" data-week="41" data-total="16" data-active-days="3" cx="272.39" cy="128.46" r="1.6" fill="#087F8C" opacity="0.5"/><circle class="weekly-point" data-week="42" data-total="19" data-active-days="3" cx="278.35" cy="123.32" r="1.6" fill="#087F8C" opacity="0.5"/><circle class="weekly-point" data-week="43" data-total="49" data-active-days="6" cx="284.31" cy="106.00" r="1.6" fill="#087F8C" opacity="0.5"/><circle class="weekly-point" data-week="44" data-total="89" data-active-days="6" cx="290.27" cy="106.00" r="1.6" fill="#087F8C" opacity="0.5"/><circle class="weekly-point" data-week="45" data-total="55" data-active-days="5" cx="296.24" cy="106.00" r="1.6" fill="#087F8C" opacity="0.5"/><circle class="weekly-point" data-week="46" data-total="41" data-active-days="5" cx="302.20" cy="106.00" r="1.6" fill="#087F8C" opacity="0.5"/><circle class="weekly-point" data-week="47" data-total="30" data-active-days="4" cx="308.16" cy="109.47" r="1.6" fill="#087F8C" opacity="0.5"/><circle class="weekly-point" data-week="48" data-total="10" data-active-days="3" cx="314.12" cy="142.22" r="1.6" fill="#087F8C" opacity="0.5"/><circle class="weekly-point" data-week="49" data-total="15" data-active-days="4" cx="320.08" cy="130.38" r="1.6" fill="#087F8C" opacity="0.5"/><circle class="weekly-point" data-week="50" data-total="8" data-active-days="4" cx="326.04" cy="148.56" r="1.6" fill="#087F8C" opacity="0.5"/><circle class="weekly-point" data-week="51" data-total="20" data-active-days="5" cx="332.00" cy="121.78" r="1.6" fill="#087F8C" opacity="0.5"/><g id="history-peak-marker"><circle cx="290.27" cy="106.00" r="4" fill="#F7F9FB" stroke="#087F8C" stroke-width="1.4"/><text class="mono signal" x="284.27" y="93.00" font-size="8" text-anchor="end">PEAK 89</text></g><g id="history-current-marker"><line x1="332.00" y1="121.78" x2="332.00" y2="218" stroke="#55B8C1" stroke-dasharray="2 4"/><text class="mono muted" x="332.00" y="260" font-size="8" text-anchor="end">CURRENT</text></g></g></svg>
