<svg xmlns="http://www.w3.org/2000/svg" width="100%" viewBox="0 0 360 300" role="img" aria-labelledby="signal-title signal-description">
  <title id="signal-title">Makaren Signal history</title>
  <desc id="signal-description">A 52-week contribution waveform with peak and current-week markers.</desc>
  <style>
      :root { color-scheme: light; }
      .sans { font-family: -apple-system, BlinkMacSystemFont, 'Segoe UI', sans-serif; }
      .mono { font-family: ui-monospace, SFMono-Regular, Consolas, 'Liberation Mono', monospace; }
      .label { fill: #5E6B78; font-size: 11px; letter-spacing: 2px; }
      .copy { fill: #17212B; }
      .muted { fill: #5E6B78; }
      .signal { fill: #087F8C; }
      .line { stroke: #CBD5DD; }
      .final-opacity { opacity: var(--final-opacity, 1); }
      .reveal { animation: reveal var(--reveal-duration, .32s) ease-out var(--reveal-delay, 0s) both; }
      .draw { animation: draw var(--draw-duration, 1.5s) ease-out var(--draw-delay, 0s) both; }
      .connection { vector-effect: non-scaling-stroke; }
      @keyframes reveal { from { opacity: 0; } to { opacity: var(--final-opacity, 1); } }
      @keyframes draw { from { stroke-dashoffset: 1; } to { stroke-dashoffset: 0; } }
      @media (prefers-reduced-motion: reduce) {
        .motion { display: none !important; }
        .reveal { animation: none !important; opacity: var(--final-opacity, 1) !important; }
        .draw { animation: none !important; stroke-dashoffset: 0 !important; }
      }

    </style>
  <rect width="360" height="300" fill="#F7F9FB" rx="12"/>
<g id="history-static"><text class="sans copy" x="24" y="46" font-size="23" font-weight="650" letter-spacing="1">SIGNAL HISTORY</text><text class="mono muted" x="336" y="68" font-size="9" text-anchor="end" letter-spacing="1">52 WEEKS / ROBUST LOG SCALE</text><line id="history-baseline" x1="28.00" y1="218" x2="332.00" y2="218" stroke="#CBD5DD"/><line class="month-tick" x1="28.00" y1="223" x2="28.00" y2="228" stroke="#CBD5DD"/><text class="mono muted month-label" x="28.00" y="244" font-size="8">AUG</text><line class="month-tick" x1="45.88" y1="223" x2="45.88" y2="228" stroke="#CBD5DD"/><line class="month-tick" x1="69.73" y1="223" x2="69.73" y2="228" stroke="#CBD5DD"/><text class="mono muted month-label" x="69.73" y="244" font-size="8">OCT</text><line class="month-tick" x1="99.53" y1="223" x2="99.53" y2="228" stroke="#CBD5DD"/><line class="month-tick" x1="123.37" y1="223" x2="123.37" y2="228" stroke="#CBD5DD"/><text class="mono muted month-label" x="123.37" y="244" font-size="8">DEC</text><line class="month-tick" x1="147.22" y1="223" x2="147.22" y2="228" stroke="#CBD5DD"/><line class="month-tick" x1="177.02" y1="223" x2="177.02" y2="228" stroke="#CBD5DD"/><text class="mono muted month-label" x="177.02" y="244" font-size="8">FEB</text><line class="month-tick" x1="200.86" y1="223" x2="200.86" y2="228" stroke="#CBD5DD"/><line class="month-tick" x1="224.71" y1="223" x2="224.71" y2="228" stroke="#CBD5DD"/><text class="mono muted month-label" x="224.71" y="244" font-size="8">APR</text><line class="month-tick" x1="254.51" y1="223" x2="254.51" y2="228" stroke="#CBD5DD"/><line class="month-tick" x1="278.35" y1="223" x2="278.35" y2="228" stroke="#CBD5DD"/><text class="mono muted month-label" x="278.35" y="244" font-size="8">JUN</text><line class="month-tick" x1="302.20" y1="223" x2="302.20" y2="228" stroke="#CBD5DD"/><line class="month-tick" x1="332.00" y1="223" x2="332.00" y2="228" stroke="#CBD5DD"/><text class="mono muted month-label" x="332.00" y="244" font-size="8">AUG</text></g><defs>
              <clipPath id="history-reveal-clip" clipPathUnits="userSpaceOnUse">
                <rect id="history-reveal-window" x="28.00" y="70" width="0" height="230">
                  <animate id="history-reveal-width" attributeName="width" values="0;304.00;304.00;0;0" keyTimes="0;0.35;0.85;0.97;1" dur="10s" repeatCount="indefinite" calcMode="linear"/>
                </rect>
              </clipPath>
              <filter id="history-scan-glow" x="-100%" y="-20%" width="300%" height="140%"><feGaussianBlur stdDeviation="1.1" result="blur"/><feMerge><feMergeNode in="blur"/><feMergeNode in="SourceGraphic"/></feMerge></filter>
            </defs><g id="history-data" data-animation="cyclic-reveal" data-build-duration="3.5s" data-hold-duration="5.0s" data-collapse-duration="1.2s" data-pause-duration="0.3s" data-cycle="10.0s" clip-path="url(#history-reveal-clip)"><path id="history-area" d="M 28.00 218.00 C 28.99 218.00 31.97 218.00 33.96 218.00 C 35.95 218.00 37.93 218.00 39.92 218.00 C 41.91 218.00 43.90 218.00 45.88 218.00 C 47.87 218.00 49.86 218.00 51.84 218.00 C 53.83 218.00 55.82 218.00 57.80 218.00 C 59.79 218.00 61.78 218.00 63.76 218.00 C 65.75 218.00 67.74 218.00 69.73 218.00 C 71.71 218.00 73.70 218.00 75.69 218.00 C 77.67 218.00 79.66 218.00 81.65 218.00 C 83.63 218.00 85.62 218.00 87.61 218.00 C 89.59 218.00 91.58 218.00 93.57 218.00 C 95.56 218.00 97.54 218.00 99.53 218.00 C 101.52 218.00 103.50 218.00 105.49 218.00 C 107.48 218.00 109.46 218.00 111.45 218.00 C 113.44 203.36 115.42 144.03 117.41 130.17 C 119.40 130.17 121.39 130.17 123.37 134.81 C 125.36 145.70 127.35 189.15 129.33 195.52 C 131.32 195.52 133.31 178.98 135.29 173.04 C 137.28 167.10 139.27 159.89 141.25 159.89 C 143.24 163.63 145.23 195.52 147.22 195.52 C 149.20 190.57 151.19 135.12 153.18 130.17 C 155.16 130.17 157.15 161.68 159.14 165.80 C 161.12 165.80 163.11 161.81 165.10 154.89 C 167.08 147.96 169.07 124.25 171.06 124.25 C 173.05 124.25 175.03 154.89 177.02 154.89 C 179.01 152.50 180.99 116.80 182.98 109.92 C 184.97 109.92 186.95 113.60 188.94 113.60 C 190.93 112.94 192.92 106.00 194.90 106.00 C 196.89 114.70 198.88 159.58 200.86 165.80 C 202.85 165.80 204.84 149.61 206.82 143.32 C 208.81 137.03 210.80 128.07 212.78 128.07 C 214.77 130.00 216.76 147.39 218.75 154.89 C 220.73 162.38 222.72 162.52 224.71 173.04 C 226.69 183.56 228.68 218.00 230.67 218.00 C 232.65 216.79 234.64 165.80 236.63 165.80 C 238.61 165.80 240.60 209.30 242.59 218.00 C 244.58 218.00 246.56 218.00 248.55 218.00 C 250.54 212.06 252.52 182.37 254.51 182.37 C 256.50 182.37 258.48 218.00 260.47 218.00 C 262.46 211.49 264.44 147.06 266.43 143.32 C 268.42 143.32 270.41 190.57 272.39 195.52 C 274.38 195.52 276.37 180.53 278.35 173.04 C 280.34 165.54 282.33 158.98 284.31 150.56 C 286.30 142.13 288.29 127.45 290.27 122.50 C 292.26 120.84 294.25 122.50 296.24 120.84 C 298.22 118.09 300.21 108.47 302.20 106.00 C 304.18 106.00 306.17 106.00 308.16 106.00 C 310.14 106.00 312.13 106.00 314.12 106.00 C 316.10 106.00 318.09 106.00 320.08 106.00 C 322.07 106.00 324.05 106.00 326.04 106.00 C 328.03 117.17 331.01 161.86 332.00 173.04 L 332.00 218 L 28.00 218 Z" fill="#087F8C" opacity="0.055"/><path id="history-wave" data-week-count="52" d="M 28.00 218.00 C 28.99 218.00 31.97 218.00 33.96 218.00 C 35.95 218.00 37.93 218.00 39.92 218.00 C 41.91 218.00 43.90 218.00 45.88 218.00 C 47.87 218.00 49.86 218.00 51.84 218.00 C 53.83 218.00 55.82 218.00 57.80 218.00 C 59.79 218.00 61.78 218.00 63.76 218.00 C 65.75 218.00 67.74 218.00 69.73 218.00 C 71.71 218.00 73.70 218.00 75.69 218.00 C 77.67 218.00 79.66 218.00 81.65 218.00 C 83.63 218.00 85.62 218.00 87.61 218.00 C 89.59 218.00 91.58 218.00 93.57 218.00 C 95.56 218.00 97.54 218.00 99.53 218.00 C 101.52 218.00 103.50 218.00 105.49 218.00 C 107.48 218.00 109.46 218.00 111.45 218.00 C 113.44 203.36 115.42 144.03 117.41 130.17 C 119.40 130.17 121.39 130.17 123.37 134.81 C 125.36 145.70 127.35 189.15 129.33 195.52 C 131.32 195.52 133.31 178.98 135.29 173.04 C 137.28 167.10 139.27 159.89 141.25 159.89 C 143.24 163.63 145.23 195.52 147.22 195.52 C 149.20 190.57 151.19 135.12 153.18 130.17 C 155.16 130.17 157.15 161.68 159.14 165.80 C 161.12 165.80 163.11 161.81 165.10 154.89 C 167.08 147.96 169.07 124.25 171.06 124.25 C 173.05 124.25 175.03 154.89 177.02 154.89 C 179.01 152.50 180.99 116.80 182.98 109.92 C 184.97 109.92 186.95 113.60 188.94 113.60 C 190.93 112.94 192.92 106.00 194.90 106.00 C 196.89 114.70 198.88 159.58 200.86 165.80 C 202.85 165.80 204.84 149.61 206.82 143.32 C 208.81 137.03 210.80 128.07 212.78 128.07 C 214.77 130.00 216.76 147.39 218.75 154.89 C 220.73 162.38 222.72 162.52 224.71 173.04 C 226.69 183.56 228.68 218.00 230.67 218.00 C 232.65 216.79 234.64 165.80 236.63 165.80 C 238.61 165.80 240.60 209.30 242.59 218.00 C 244.58 218.00 246.56 218.00 248.55 218.00 C 250.54 212.06 252.52 182.37 254.51 182.37 C 256.50 182.37 258.48 218.00 260.47 218.00 C 262.46 211.49 264.44 147.06 266.43 143.32 C 268.42 143.32 270.41 190.57 272.39 195.52 C 274.38 195.52 276.37 180.53 278.35 173.04 C 280.34 165.54 282.33 158.98 284.31 150.56 C 286.30 142.13 288.29 127.45 290.27 122.50 C 292.26 120.84 294.25 122.50 296.24 120.84 C 298.22 118.09 300.21 108.47 302.20 106.00 C 304.18 106.00 306.17 106.00 308.16 106.00 C 310.14 106.00 312.13 106.00 314.12 106.00 C 316.10 106.00 318.09 106.00 320.08 106.00 C 322.07 106.00 324.05 106.00 326.04 106.00 C 328.03 117.17 331.01 161.86 332.00 173.04" fill="none" stroke="#087F8C" stroke-width="2" stroke-linecap="round" stroke-linejoin="round"/><circle class="weekly-point" data-week="0" data-total="0" data-active-days="0" cx="28.00" cy="218.00" r="1.6" fill="#087F8C" opacity="0.5"/><circle class="weekly-point" data-week="1" data-total="0" data-active-days="0" cx="33.96" cy="218.00" r="1.6" fill="#087F8C" opacity="0.5"/><circle class="weekly-point" data-week="2" data-total="0" data-active-days="0" cx="39.92" cy="218.00" r="1.6" fill="#087F8C" opacity="0.5"/><circle class="weekly-point" data-week="3" data-total="0" data-active-days="0" cx="45.88" cy="218.00" r="1.6" fill="#087F8C" opacity="0.5"/><circle class="weekly-point" data-week="4" data-total="0" data-active-days="0" cx="51.84" cy="218.00" r="1.6" fill="#087F8C" opacity="0.5"/><circle class="weekly-point" data-week="5" data-total="0" data-active-days="0" cx="57.80" cy="218.00" r="1.6" fill="#087F8C" opacity="0.5"/><circle class="weekly-point" data-week="6" data-total="0" data-active-days="0" cx="63.76" cy="218.00" r="1.6" fill="#087F8C" opacity="0.5"/><circle class="weekly-point" data-week="7" data-total="0" data-active-days="0" cx="69.73" cy="218.00" r="1.6" fill="#087F8C" opacity="0.5"/><circle class="weekly-point" data-week="8" data-total="0" data-active-days="0" cx="75.69" cy="218.00" r="1.6" fill="#087F8C" opacity="0.5"/><circle class="weekly-point" data-week="9" data-total="0" data-active-days="0" cx="81.65" cy="218.00" r="1.6" fill="#087F8C" opacity="0.5"/><circle class="weekly-point" data-week="10" data-total="0" data-active-days="0" cx="87.61" cy="218.00" r="1.6" fill="#087F8C" opacity="0.5"/><circle class="weekly-point" data-week="11" data-total="0" data-active-days="0" cx="93.57" cy="218.00" r="1.6" fill="#087F8C" opacity="0.5"/><circle class="weekly-point" data-week="12" data-total="0" data-active-days="0" cx="99.53" cy="218.00" r="1.6" fill="#087F8C" opacity="0.5"/><circle class="weekly-point" data-week="13" data-total="0" data-active-days="0" cx="105.49" cy="218.00" r="1.6" fill="#087F8C" opacity="0.5"/><circle class="weekly-point" data-week="14" data-total="0" data-active-days="0" cx="111.45" cy="218.00" r="1.6" fill="#087F8C" opacity="0.5"/><circle class="weekly-point" data-week="15" data-total="14" data-active-days="3" cx="117.41" cy="130.17" r="1.6" fill="#087F8C" opacity="0.5"/><circle class="weekly-point" data-week="16" data-total="12" data-active-days="2" cx="123.37" cy="134.81" r="1.6" fill="#087F8C" opacity="0.5"/><circle class="weekly-point" data-week="17" data-total="1" data-active-days="1" cx="129.33" cy="195.52" r="1.6" fill="#087F8C" opacity="0.5"/><circle class="weekly-point" data-week="18" data-total="3" data-active-days="3" cx="135.29" cy="173.04" r="1.6" fill="#087F8C" opacity="0.5"/><circle class="weekly-point" data-week="19" data-total="5" data-active-days="3" cx="141.25" cy="159.89" r="1.6" fill="#087F8C" opacity="0.5"/><circle class="weekly-point" data-week="20" data-total="1" data-active-days="1" cx="147.22" cy="195.52" r="1.6" fill="#087F8C" opacity="0.5"/><circle class="weekly-point" data-week="21" data-total="14" data-active-days="5" cx="153.18" cy="130.17" r="1.6" fill="#087F8C" opacity="0.5"/><circle class="weekly-point" data-week="22" data-total="4" data-active-days="2" cx="159.14" cy="165.80" r="1.6" fill="#087F8C" opacity="0.5"/><circle class="weekly-point" data-week="23" data-total="6" data-active-days="3" cx="165.10" cy="154.89" r="1.6" fill="#087F8C" opacity="0.5"/><circle class="weekly-point" data-week="24" data-total="17" data-active-days="6" cx="171.06" cy="124.25" r="1.6" fill="#087F8C" opacity="0.5"/><circle class="weekly-point" data-week="25" data-total="6" data-active-days="3" cx="177.02" cy="154.89" r="1.6" fill="#087F8C" opacity="0.5"/><circle class="weekly-point" data-week="26" data-total="27" data-active-days="5" cx="182.98" cy="109.92" r="1.6" fill="#087F8C" opacity="0.5"/><circle class="weekly-point" data-week="27" data-total="24" data-active-days="6" cx="188.94" cy="113.60" r="1.6" fill="#087F8C" opacity="0.5"/><circle class="weekly-point" data-week="28" data-total="33" data-active-days="4" cx="194.90" cy="106.00" r="1.6" fill="#087F8C" opacity="0.5"/><circle class="weekly-point" data-week="29" data-total="4" data-active-days="2" cx="200.86" cy="165.80" r="1.6" fill="#087F8C" opacity="0.5"/><circle class="weekly-point" data-week="30" data-total="9" data-active-days="4" cx="206.82" cy="143.32" r="1.6" fill="#087F8C" opacity="0.5"/><circle class="weekly-point" data-week="31" data-total="15" data-active-days="3" cx="212.78" cy="128.07" r="1.6" fill="#087F8C" opacity="0.5"/><circle class="weekly-point" data-week="32" data-total="6" data-active-days="2" cx="218.75" cy="154.89" r="1.6" fill="#087F8C" opacity="0.5"/><circle class="weekly-point" data-week="33" data-total="3" data-active-days="3" cx="224.71" cy="173.04" r="1.6" fill="#087F8C" opacity="0.5"/><circle class="weekly-point" data-week="34" data-total="0" data-active-days="0" cx="230.67" cy="218.00" r="1.6" fill="#087F8C" opacity="0.5"/><circle class="weekly-point" data-week="35" data-total="4" data-active-days="2" cx="236.63" cy="165.80" r="1.6" fill="#087F8C" opacity="0.5"/><circle class="weekly-point" data-week="36" data-total="0" data-active-days="0" cx="242.59" cy="218.00" r="1.6" fill="#087F8C" opacity="0.5"/><circle class="weekly-point" data-week="37" data-total="0" data-active-days="0" cx="248.55" cy="218.00" r="1.6" fill="#087F8C" opacity="0.5"/><circle class="weekly-point" data-week="38" data-total="2" data-active-days="1" cx="254.51" cy="182.37" r="1.6" fill="#087F8C" opacity="0.5"/><circle class="weekly-point" data-week="39" data-total="0" data-active-days="0" cx="260.47" cy="218.00" r="1.6" fill="#087F8C" opacity="0.5"/><circle class="weekly-point" data-week="40" data-total="9" data-active-days="2" cx="266.43" cy="143.32" r="1.6" fill="#087F8C" opacity="0.5"/><circle class="weekly-point" data-week="41" data-total="1" data-active-days="1" cx="272.39" cy="195.52" r="1.6" fill="#087F8C" opacity="0.5"/><circle class="weekly-point" data-week="42" data-total="3" data-active-days="3" cx="278.35" cy="173.04" r="1.6" fill="#087F8C" opacity="0.5"/><circle class="weekly-point" data-week="43" data-total="7" data-active-days="3" cx="284.31" cy="150.56" r="1.6" fill="#087F8C" opacity="0.5"/><circle class="weekly-point" data-week="44" data-total="18" data-active-days="4" cx="290.27" cy="122.50" r="1.6" fill="#087F8C" opacity="0.5"/><circle class="weekly-point" data-week="45" data-total="19" data-active-days="3" cx="296.24" cy="120.84" r="1.6" fill="#087F8C" opacity="0.5"/><circle class="weekly-point" data-week="46" data-total="38" data-active-days="5" cx="302.20" cy="106.00" r="1.6" fill="#087F8C" opacity="0.5"/><circle class="weekly-point" data-week="47" data-total="86" data-active-days="6" cx="308.16" cy="106.00" r="1.6" fill="#087F8C" opacity="0.5"/><circle class="weekly-point" data-week="48" data-total="69" data-active-days="6" cx="314.12" cy="106.00" r="1.6" fill="#087F8C" opacity="0.5"/><circle class="weekly-point" data-week="49" data-total="40" data-active-days="4" cx="320.08" cy="106.00" r="1.6" fill="#087F8C" opacity="0.5"/><circle class="weekly-point" data-week="50" data-total="31" data-active-days="5" cx="326.04" cy="106.00" r="1.6" fill="#087F8C" opacity="0.5"/><circle class="weekly-point" data-week="51" data-total="3" data-active-days="2" cx="332.00" cy="173.04" r="1.6" fill="#087F8C" opacity="0.5"/><g id="history-peak-marker"><circle cx="308.16" cy="106.00" r="4" fill="#F7F9FB" stroke="#087F8C" stroke-width="1.4"/><text class="mono signal" x="302.16" y="93.00" font-size="8" text-anchor="end">PEAK 86</text></g><g id="history-current-marker"><line x1="332.00" y1="173.04" x2="332.00" y2="218" stroke="#55B8C1" stroke-dasharray="2 4"/><text class="mono muted" x="332.00" y="260" font-size="8" text-anchor="end">CURRENT</text></g></g><line id="history-scan-front" class="motion" x1="28.00" y1="70" x2="28.00" y2="221" stroke="#087F8C" stroke-width="1.2" opacity="0.72" filter="url(#history-scan-glow)">
              <animate attributeName="x1" values="28.00;332.00;332.00;28.00;28.00" keyTimes="0;0.35;0.85;0.97;1" dur="10s" repeatCount="indefinite" calcMode="linear"/>
              <animate attributeName="x2" values="28.00;332.00;332.00;28.00;28.00" keyTimes="0;0.35;0.85;0.97;1" dur="10s" repeatCount="indefinite" calcMode="linear"/>
              <animate attributeName="opacity" values="0.72;0;0.72;0;0" keyTimes="0;0.35;0.85;0.97;1" dur="10s" repeatCount="indefinite" calcMode="discrete"/>
            </line></svg>
