<svg xmlns="http://www.w3.org/2000/svg" width="100%" viewBox="0 0 360 300" role="img" aria-labelledby="signal-title signal-description">
  <title id="signal-title">Makaren Signal history</title>
  <desc id="signal-description">A 52-week contribution waveform with peak and current-week markers.</desc>
  <style>
      :root { color-scheme: dark; }
      .sans { font-family: -apple-system, BlinkMacSystemFont, 'Segoe UI', sans-serif; }
      .mono { font-family: ui-monospace, SFMono-Regular, Consolas, 'Liberation Mono', monospace; }
      .label { fill: #7D8590; font-size: 11px; letter-spacing: 2px; }
      .copy { fill: #E6EDF3; }
      .muted { fill: #7D8590; }
      .signal { fill: #32D6E2; }
      .line { stroke: #26303B; }
      .final-opacity { opacity: var(--final-opacity, 1); }
      .reveal { animation: reveal var(--reveal-duration, .32s) ease-out var(--reveal-delay, 0s) both; }
      .draw { animation: draw var(--draw-duration, 1.5s) ease-out var(--draw-delay, 0s) both; }
      .connection { vector-effect: non-scaling-stroke; }
      @keyframes reveal { from { opacity: 0; } to { opacity: var(--final-opacity, 1); } }
      @keyframes draw { from { stroke-dashoffset: 1; } to { stroke-dashoffset: 0; } }
      @media (prefers-reduced-motion: reduce) {
        .motion { display: none !important; }
        .reveal { animation: none !important; opacity: var(--final-opacity, 1) !important; }
        .draw { animation: none !important; stroke-dashoffset: 0 !important; }
      }

      .motion { display: none !important; }
      .reveal { animation: none !important; opacity: var(--final-opacity, 1) !important; }
      .draw { animation: none !important; stroke-dashoffset: 0 !important; }

    </style>
  <rect width="360" height="300" fill="#080B10" rx="12"/>
<g id="history-static"><text class="sans copy" x="24" y="46" font-size="23" font-weight="650" letter-spacing="1">SIGNAL HISTORY</text><text class="mono muted" x="336" y="68" font-size="9" text-anchor="end" letter-spacing="1">52 WEEKS / ROBUST LOG SCALE</text><line id="history-baseline" x1="28.00" y1="218" x2="332.00" y2="218" stroke="#26303B"/><line class="month-tick" x1="28.00" y1="223" x2="28.00" y2="228" stroke="#26303B"/><text class="mono muted month-label" x="28.00" y="244" font-size="8">OCT</text><line class="month-tick" x1="57.80" y1="223" x2="57.80" y2="228" stroke="#26303B"/><line class="month-tick" x1="81.65" y1="223" x2="81.65" y2="228" stroke="#26303B"/><text class="mono muted month-label" x="81.65" y="244" font-size="8">DEC</text><line class="month-tick" x1="105.49" y1="223" x2="105.49" y2="228" stroke="#26303B"/><line class="month-tick" x1="135.29" y1="223" x2="135.29" y2="228" stroke="#26303B"/><text class="mono muted month-label" x="135.29" y="244" font-size="8">FEB</text><line class="month-tick" x1="159.14" y1="223" x2="159.14" y2="228" stroke="#26303B"/><line class="month-tick" x1="182.98" y1="223" x2="182.98" y2="228" stroke="#26303B"/><text class="mono muted month-label" x="182.98" y="244" font-size="8">APR</text><line class="month-tick" x1="212.78" y1="223" x2="212.78" y2="228" stroke="#26303B"/><line class="month-tick" x1="236.63" y1="223" x2="236.63" y2="228" stroke="#26303B"/><text class="mono muted month-label" x="236.63" y="244" font-size="8">JUN</text><line class="month-tick" x1="260.47" y1="223" x2="260.47" y2="228" stroke="#26303B"/><line class="month-tick" x1="290.27" y1="223" x2="290.27" y2="228" stroke="#26303B"/><text class="mono muted month-label" x="290.27" y="244" font-size="8">AUG</text><line class="month-tick" x1="314.12" y1="223" x2="314.12" y2="228" stroke="#26303B"/></g><g id="history-data" data-animation="cyclic-reveal" data-build-duration="3.5s" data-hold-duration="5.0s" data-collapse-duration="1.2s" data-pause-duration="0.3s" data-cycle="10.0s"><path id="history-area" d="M 28.00 218.00 C 28.99 218.00 31.97 218.00 33.96 218.00 C 35.95 218.00 37.93 218.00 39.92 218.00 C 41.91 218.00 43.90 218.00 45.88 218.00 C 47.87 218.00 49.86 218.00 51.84 218.00 C 53.83 218.00 55.82 218.00 57.80 218.00 C 59.79 218.00 61.78 218.00 63.76 218.00 C 65.75 218.00 67.74 218.00 69.73 218.00 C 71.71 202.80 73.70 141.18 75.69 126.78 C 77.67 126.78 79.66 126.78 81.65 131.60 C 83.63 142.91 85.62 188.04 87.61 194.65 C 89.59 194.65 91.58 177.47 93.57 171.30 C 95.56 165.14 97.54 157.65 99.53 157.65 C 101.52 161.54 103.50 194.65 105.49 194.65 C 107.48 189.51 109.46 131.93 111.45 126.78 C 113.44 126.78 115.42 159.51 117.41 163.79 C 119.40 163.79 121.39 159.65 123.37 152.45 C 125.36 145.26 127.35 120.64 129.33 120.64 C 131.32 120.64 133.31 152.45 135.29 152.45 C 137.28 150.01 139.27 113.15 141.25 106.00 C 143.24 106.00 145.23 109.58 147.22 109.58 C 149.20 109.58 151.19 106.00 153.18 106.00 C 155.16 115.04 157.15 158.05 159.14 163.79 C 161.12 163.79 163.11 146.97 165.10 140.44 C 167.08 133.91 169.07 124.61 171.06 124.61 C 173.05 126.61 175.03 144.67 177.02 152.45 C 179.01 160.24 180.99 160.38 182.98 171.30 C 184.97 182.23 186.95 218.00 188.94 218.00 C 190.93 216.75 192.92 163.79 194.90 163.79 C 196.89 163.79 198.88 208.96 200.86 218.00 C 202.85 218.00 204.84 218.00 206.82 218.00 C 208.81 211.83 210.80 180.99 212.78 180.99 C 214.77 180.99 216.76 218.00 218.75 218.00 C 220.73 211.24 222.72 144.33 224.71 140.44 C 226.69 140.44 228.68 189.51 230.67 194.65 C 232.65 194.65 234.64 179.09 236.63 171.30 C 238.61 163.52 240.60 156.70 242.59 147.96 C 244.58 139.21 246.56 123.96 248.55 118.82 C 250.54 117.09 252.52 118.82 254.51 117.09 C 256.50 114.96 258.48 107.85 260.47 106.00 C 262.46 106.00 264.44 106.00 266.43 106.00 C 268.42 106.00 270.41 106.00 272.39 106.00 C 274.38 106.00 276.37 106.00 278.35 106.00 C 280.34 109.46 282.33 121.58 284.31 126.78 C 286.30 131.99 288.29 137.23 290.27 137.23 C 292.26 136.87 294.25 124.61 296.24 124.61 C 298.22 128.01 300.21 157.65 302.20 157.65 C 304.18 155.37 306.17 110.95 308.16 110.95 C 310.14 121.01 312.13 206.33 314.12 218.00 C 316.10 218.00 318.09 199.29 320.08 180.99 C 322.07 162.70 324.05 115.01 326.04 108.25 C 328.03 108.25 331.01 135.08 332.00 140.44 L 332.00 218 L 28.00 218 Z" fill="#32D6E2" opacity="0.055"/><path id="history-wave" data-week-count="52" d="M 28.00 218.00 C 28.99 218.00 31.97 218.00 33.96 218.00 C 35.95 218.00 37.93 218.00 39.92 218.00 C 41.91 218.00 43.90 218.00 45.88 218.00 C 47.87 218.00 49.86 218.00 51.84 218.00 C 53.83 218.00 55.82 218.00 57.80 218.00 C 59.79 218.00 61.78 218.00 63.76 218.00 C 65.75 218.00 67.74 218.00 69.73 218.00 C 71.71 202.80 73.70 141.18 75.69 126.78 C 77.67 126.78 79.66 126.78 81.65 131.60 C 83.63 142.91 85.62 188.04 87.61 194.65 C 89.59 194.65 91.58 177.47 93.57 171.30 C 95.56 165.14 97.54 157.65 99.53 157.65 C 101.52 161.54 103.50 194.65 105.49 194.65 C 107.48 189.51 109.46 131.93 111.45 126.78 C 113.44 126.78 115.42 159.51 117.41 163.79 C 119.40 163.79 121.39 159.65 123.37 152.45 C 125.36 145.26 127.35 120.64 129.33 120.64 C 131.32 120.64 133.31 152.45 135.29 152.45 C 137.28 150.01 139.27 113.15 141.25 106.00 C 143.24 106.00 145.23 109.58 147.22 109.58 C 149.20 109.58 151.19 106.00 153.18 106.00 C 155.16 115.04 157.15 158.05 159.14 163.79 C 161.12 163.79 163.11 146.97 165.10 140.44 C 167.08 133.91 169.07 124.61 171.06 124.61 C 173.05 126.61 175.03 144.67 177.02 152.45 C 179.01 160.24 180.99 160.38 182.98 171.30 C 184.97 182.23 186.95 218.00 188.94 218.00 C 190.93 216.75 192.92 163.79 194.90 163.79 C 196.89 163.79 198.88 208.96 200.86 218.00 C 202.85 218.00 204.84 218.00 206.82 218.00 C 208.81 211.83 210.80 180.99 212.78 180.99 C 214.77 180.99 216.76 218.00 218.75 218.00 C 220.73 211.24 222.72 144.33 224.71 140.44 C 226.69 140.44 228.68 189.51 230.67 194.65 C 232.65 194.65 234.64 179.09 236.63 171.30 C 238.61 163.52 240.60 156.70 242.59 147.96 C 244.58 139.21 246.56 123.96 248.55 118.82 C 250.54 117.09 252.52 118.82 254.51 117.09 C 256.50 114.96 258.48 107.85 260.47 106.00 C 262.46 106.00 264.44 106.00 266.43 106.00 C 268.42 106.00 270.41 106.00 272.39 106.00 C 274.38 106.00 276.37 106.00 278.35 106.00 C 280.34 109.46 282.33 121.58 284.31 126.78 C 286.30 131.99 288.29 137.23 290.27 137.23 C 292.26 136.87 294.25 124.61 296.24 124.61 C 298.22 128.01 300.21 157.65 302.20 157.65 C 304.18 155.37 306.17 110.95 308.16 110.95 C 310.14 121.01 312.13 206.33 314.12 218.00 C 316.10 218.00 318.09 199.29 320.08 180.99 C 322.07 162.70 324.05 115.01 326.04 108.25 C 328.03 108.25 331.01 135.08 332.00 140.44" fill="none" stroke="#32D6E2" stroke-width="2" stroke-linecap="round" stroke-linejoin="round"/><circle class="weekly-point" data-week="0" data-total="0" data-active-days="0" cx="28.00" cy="218.00" r="1.6" fill="#32D6E2" opacity="0.5"/><circle class="weekly-point" data-week="1" data-total="0" data-active-days="0" cx="33.96" cy="218.00" r="1.6" fill="#32D6E2" opacity="0.5"/><circle class="weekly-point" data-week="2" data-total="0" data-active-days="0" cx="39.92" cy="218.00" r="1.6" fill="#32D6E2" opacity="0.5"/><circle class="weekly-point" data-week="3" data-total="0" data-active-days="0" cx="45.88" cy="218.00" r="1.6" fill="#32D6E2" opacity="0.5"/><circle class="weekly-point" data-week="4" data-total="0" data-active-days="0" cx="51.84" cy="218.00" r="1.6" fill="#32D6E2" opacity="0.5"/><circle class="weekly-point" data-week="5" data-total="0" data-active-days="0" cx="57.80" cy="218.00" r="1.6" fill="#32D6E2" opacity="0.5"/><circle class="weekly-point" data-week="6" data-total="0" data-active-days="0" cx="63.76" cy="218.00" r="1.6" fill="#32D6E2" opacity="0.5"/><circle class="weekly-point" data-week="7" data-total="0" data-active-days="0" cx="69.73" cy="218.00" r="1.6" fill="#32D6E2" opacity="0.5"/><circle class="weekly-point" data-week="8" data-total="14" data-active-days="3" cx="75.69" cy="126.78" r="1.6" fill="#32D6E2" opacity="0.5"/><circle class="weekly-point" data-week="9" data-total="12" data-active-days="2" cx="81.65" cy="131.60" r="1.6" fill="#32D6E2" opacity="0.5"/><circle class="weekly-point" data-week="10" data-total="1" data-active-days="1" cx="87.61" cy="194.65" r="1.6" fill="#32D6E2" opacity="0.5"/><circle class="weekly-point" data-week="11" data-total="3" data-active-days="3" cx="93.57" cy="171.30" r="1.6" fill="#32D6E2" opacity="0.5"/><circle class="weekly-point" data-week="12" data-total="5" data-active-days="3" cx="99.53" cy="157.65" r="1.6" fill="#32D6E2" opacity="0.5"/><circle class="weekly-point" data-week="13" data-total="1" data-active-days="1" cx="105.49" cy="194.65" r="1.6" fill="#32D6E2" opacity="0.5"/><circle class="weekly-point" data-week="14" data-total="14" data-active-days="5" cx="111.45" cy="126.78" r="1.6" fill="#32D6E2" opacity="0.5"/><circle class="weekly-point" data-week="15" data-total="4" data-active-days="2" cx="117.41" cy="163.79" r="1.6" fill="#32D6E2" opacity="0.5"/><circle class="weekly-point" data-week="16" data-total="6" data-active-days="3" cx="123.37" cy="152.45" r="1.6" fill="#32D6E2" opacity="0.5"/><circle class="weekly-point" data-week="17" data-total="17" data-active-days="6" cx="129.33" cy="120.64" r="1.6" fill="#32D6E2" opacity="0.5"/><circle class="weekly-point" data-week="18" data-total="6" data-active-days="3" cx="135.29" cy="152.45" r="1.6" fill="#32D6E2" opacity="0.5"/><circle class="weekly-point" data-week="19" data-total="27" data-active-days="5" cx="141.25" cy="106.00" r="1.6" fill="#32D6E2" opacity="0.5"/><circle class="weekly-point" data-week="20" data-total="24" data-active-days="6" cx="147.22" cy="109.58" r="1.6" fill="#32D6E2" opacity="0.5"/><circle class="weekly-point" data-week="21" data-total="33" data-active-days="4" cx="153.18" cy="106.00" r="1.6" fill="#32D6E2" opacity="0.5"/><circle class="weekly-point" data-week="22" data-total="4" data-active-days="2" cx="159.14" cy="163.79" r="1.6" fill="#32D6E2" opacity="0.5"/><circle class="weekly-point" data-week="23" data-total="9" data-active-days="4" cx="165.10" cy="140.44" r="1.6" fill="#32D6E2" opacity="0.5"/><circle class="weekly-point" data-week="24" data-total="15" data-active-days="3" cx="171.06" cy="124.61" r="1.6" fill="#32D6E2" opacity="0.5"/><circle class="weekly-point" data-week="25" data-total="6" data-active-days="2" cx="177.02" cy="152.45" r="1.6" fill="#32D6E2" opacity="0.5"/><circle class="weekly-point" data-week="26" data-total="3" data-active-days="3" cx="182.98" cy="171.30" r="1.6" fill="#32D6E2" opacity="0.5"/><circle class="weekly-point" data-week="27" data-total="0" data-active-days="0" cx="188.94" cy="218.00" r="1.6" fill="#32D6E2" opacity="0.5"/><circle class="weekly-point" data-week="28" data-total="4" data-active-days="2" cx="194.90" cy="163.79" r="1.6" fill="#32D6E2" opacity="0.5"/><circle class="weekly-point" data-week="29" data-total="0" data-active-days="0" cx="200.86" cy="218.00" r="1.6" fill="#32D6E2" opacity="0.5"/><circle class="weekly-point" data-week="30" data-total="0" data-active-days="0" cx="206.82" cy="218.00" r="1.6" fill="#32D6E2" opacity="0.5"/><circle class="weekly-point" data-week="31" data-total="2" data-active-days="1" cx="212.78" cy="180.99" r="1.6" fill="#32D6E2" opacity="0.5"/><circle class="weekly-point" data-week="32" data-total="0" data-active-days="0" cx="218.75" cy="218.00" r="1.6" fill="#32D6E2" opacity="0.5"/><circle class="weekly-point" data-week="33" data-total="9" data-active-days="2" cx="224.71" cy="140.44" r="1.6" fill="#32D6E2" opacity="0.5"/><circle class="weekly-point" data-week="34" data-total="1" data-active-days="1" cx="230.67" cy="194.65" r="1.6" fill="#32D6E2" opacity="0.5"/><circle class="weekly-point" data-week="35" data-total="3" data-active-days="3" cx="236.63" cy="171.30" r="1.6" fill="#32D6E2" opacity="0.5"/><circle class="weekly-point" data-week="36" data-total="7" data-active-days="3" cx="242.59" cy="147.96" r="1.6" fill="#32D6E2" opacity="0.5"/><circle class="weekly-point" data-week="37" data-total="18" data-active-days="4" cx="248.55" cy="118.82" r="1.6" fill="#32D6E2" opacity="0.5"/><circle class="weekly-point" data-week="38" data-total="19" data-active-days="3" cx="254.51" cy="117.09" r="1.6" fill="#32D6E2" opacity="0.5"/><circle class="weekly-point" data-week="39" data-total="38" data-active-days="5" cx="260.47" cy="106.00" r="1.6" fill="#32D6E2" opacity="0.5"/><circle class="weekly-point" data-week="40" data-total="69" data-active-days="6" cx="266.43" cy="106.00" r="1.6" fill="#32D6E2" opacity="0.5"/><circle class="weekly-point" data-week="41" data-total="57" data-active-days="6" cx="272.39" cy="106.00" r="1.6" fill="#32D6E2" opacity="0.5"/><circle class="weekly-point" data-week="42" data-total="40" data-active-days="4" cx="278.35" cy="106.00" r="1.6" fill="#32D6E2" opacity="0.5"/><circle class="weekly-point" data-week="43" data-total="14" data-active-days="3" cx="284.31" cy="126.78" r="1.6" fill="#32D6E2" opacity="0.5"/><circle class="weekly-point" data-week="44" data-total="10" data-active-days="3" cx="290.27" cy="137.23" r="1.6" fill="#32D6E2" opacity="0.5"/><circle class="weekly-point" data-week="45" data-total="15" data-active-days="4" cx="296.24" cy="124.61" r="1.6" fill="#32D6E2" opacity="0.5"/><circle class="weekly-point" data-week="46" data-total="5" data-active-days="3" cx="302.20" cy="157.65" r="1.6" fill="#32D6E2" opacity="0.5"/><circle class="weekly-point" data-week="47" data-total="23" data-active-days="6" cx="308.16" cy="110.95" r="1.6" fill="#32D6E2" opacity="0.5"/><circle class="weekly-point" data-week="48" data-total="0" data-active-days="0" cx="314.12" cy="218.00" r="1.6" fill="#32D6E2" opacity="0.5"/><circle class="weekly-point" data-week="49" data-total="2" data-active-days="1" cx="320.08" cy="180.99" r="1.6" fill="#32D6E2" opacity="0.5"/><circle class="weekly-point" data-week="50" data-total="25" data-active-days="2" cx="326.04" cy="108.25" r="1.6" fill="#32D6E2" opacity="0.5"/><circle class="weekly-point" data-week="51" data-total="9" data-active-days="4" cx="332.00" cy="140.44" r="1.6" fill="#32D6E2" opacity="0.5"/><g id="history-peak-marker"><circle cx="266.43" cy="106.00" r="4" fill="#080B10" stroke="#32D6E2" stroke-width="1.4"/><text class="mono signal" x="266.43" y="93.00" font-size="8" text-anchor="middle">PEAK 69</text></g><g id="history-current-marker"><line x1="332.00" y1="140.44" x2="332.00" y2="218" stroke="#1B7D86" stroke-dasharray="2 4"/><text class="mono muted" x="332.00" y="260" font-size="8" text-anchor="end">CURRENT</text></g></g></svg>
