<svg xmlns="http://www.w3.org/2000/svg" width="100%" viewBox="0 0 1000 230" role="img" aria-labelledby="signal-title signal-description">
  <title id="signal-title">Makaren Signal history</title>
  <desc id="signal-description">A 52-week contribution waveform with peak and current-week markers.</desc>
  <style>
      :root { color-scheme: dark; }
      .sans { font-family: -apple-system, BlinkMacSystemFont, 'Segoe UI', sans-serif; }
      .mono { font-family: ui-monospace, SFMono-Regular, Consolas, 'Liberation Mono', monospace; }
      .label { fill: #7D8590; font-size: 11px; letter-spacing: 2px; }
      .copy { fill: #E6EDF3; }
      .muted { fill: #7D8590; }
      .signal { fill: #32D6E2; }
      .line { stroke: #26303B; }
      .final-opacity { opacity: var(--final-opacity, 1); }
      .reveal { animation: reveal var(--reveal-duration, .32s) ease-out var(--reveal-delay, 0s) both; }
      .draw { animation: draw var(--draw-duration, 1.5s) ease-out var(--draw-delay, 0s) both; }
      .connection { vector-effect: non-scaling-stroke; }
      @keyframes reveal { from { opacity: 0; } to { opacity: var(--final-opacity, 1); } }
      @keyframes draw { from { stroke-dashoffset: 1; } to { stroke-dashoffset: 0; } }
      @media (prefers-reduced-motion: reduce) {
        .motion { display: none !important; }
        .reveal { animation: none !important; opacity: var(--final-opacity, 1) !important; }
        .draw { animation: none !important; stroke-dashoffset: 0 !important; }
      }

      .motion { display: none !important; }
      .reveal { animation: none !important; opacity: var(--final-opacity, 1) !important; }
      .draw { animation: none !important; stroke-dashoffset: 0 !important; }

    </style>
  <rect width="1000" height="230" fill="#080B10" rx="12"/>
<g id="history-static"><text class="sans copy" x="48" y="48" font-size="25" font-weight="650" letter-spacing="1">SIGNAL HISTORY</text><text class="mono muted" x="952" y="46" font-size="9" text-anchor="end" letter-spacing="1">52 WEEKS / ROBUST LOG SCALE</text><line id="history-baseline" x1="62.00" y1="174" x2="938.00" y2="174" stroke="#26303B"/><line class="month-tick" x1="62.00" y1="179" x2="62.00" y2="184" stroke="#26303B"/><text class="mono muted month-label" x="62.00" y="200" font-size="8">OCT</text><line class="month-tick" x1="130.71" y1="179" x2="130.71" y2="184" stroke="#26303B"/><text class="mono muted month-label" x="130.71" y="200" font-size="8">NOV</text><line class="month-tick" x1="216.59" y1="179" x2="216.59" y2="184" stroke="#26303B"/><text class="mono muted month-label" x="216.59" y="200" font-size="8">DEC</text><line class="month-tick" x1="285.29" y1="179" x2="285.29" y2="184" stroke="#26303B"/><text class="mono muted month-label" x="285.29" y="200" font-size="8">JAN</text><line class="month-tick" x1="371.18" y1="179" x2="371.18" y2="184" stroke="#26303B"/><text class="mono muted month-label" x="371.18" y="200" font-size="8">FEB</text><line class="month-tick" x1="439.88" y1="179" x2="439.88" y2="184" stroke="#26303B"/><text class="mono muted month-label" x="439.88" y="200" font-size="8">MAR</text><line class="month-tick" x1="508.59" y1="179" x2="508.59" y2="184" stroke="#26303B"/><text class="mono muted month-label" x="508.59" y="200" font-size="8">APR</text><line class="month-tick" x1="577.29" y1="179" x2="577.29" y2="184" stroke="#26303B"/><text class="mono muted month-label" x="577.29" y="200" font-size="8">MAY</text><line class="month-tick" x1="663.18" y1="179" x2="663.18" y2="184" stroke="#26303B"/><text class="mono muted month-label" x="663.18" y="200" font-size="8">JUN</text><line class="month-tick" x1="731.88" y1="179" x2="731.88" y2="184" stroke="#26303B"/><text class="mono muted month-label" x="731.88" y="200" font-size="8">JUL</text><line class="month-tick" x1="800.59" y1="179" x2="800.59" y2="184" stroke="#26303B"/><text class="mono muted month-label" x="800.59" y="200" font-size="8">AUG</text><line class="month-tick" x1="886.47" y1="179" x2="886.47" y2="184" stroke="#26303B"/><text class="mono muted month-label" x="886.47" y="200" font-size="8">SEP</text></g><g id="history-data" data-animation="cyclic-reveal" data-build-duration="3.5s" data-hold-duration="5.0s" data-collapse-duration="1.2s" data-pause-duration="0.3s" data-cycle="10.0s"><path id="history-area" d="M 62.00 174.00 C 64.86 174.00 73.45 174.00 79.18 174.00 C 84.90 174.00 90.63 174.00 96.35 174.00 C 102.08 174.00 107.80 174.00 113.53 174.00 C 119.25 174.00 124.98 174.00 130.71 174.00 C 136.43 174.00 142.16 174.00 147.88 174.00 C 153.61 174.00 159.33 174.00 165.06 174.00 C 170.78 174.00 176.51 174.00 182.24 174.00 C 187.96 159.90 193.69 89.39 199.41 89.39 C 205.14 89.39 210.86 164.60 216.59 174.00 C 222.31 174.00 228.04 152.68 233.76 145.80 C 239.49 138.91 245.22 133.91 250.94 132.68 C 256.67 132.68 262.39 138.41 268.12 138.41 C 273.84 138.41 279.57 138.04 285.29 132.68 C 291.02 127.32 296.75 106.25 302.47 106.25 C 308.20 107.20 313.92 136.02 319.65 138.41 C 325.37 138.41 331.10 126.55 336.82 120.61 C 342.55 114.68 348.27 103.32 354.00 102.82 C 359.73 102.82 365.45 117.59 371.18 117.59 C 376.90 114.12 382.63 83.57 388.35 82.00 C 394.08 82.00 399.80 108.15 405.53 108.15 C 411.25 108.15 416.98 82.00 422.71 82.00 C 428.43 88.27 434.16 141.09 439.88 145.80 C 445.61 145.80 451.33 116.14 457.06 110.20 C 462.78 110.20 468.51 110.20 474.24 110.20 C 479.96 112.51 485.69 119.34 491.41 124.04 C 497.14 128.74 502.86 134.78 508.59 138.41 C 514.31 142.04 520.04 144.56 525.76 145.80 C 531.49 145.80 537.22 145.80 542.94 145.80 C 548.67 150.50 554.39 169.30 560.12 174.00 C 565.84 174.00 571.57 174.00 577.29 174.00 C 583.02 169.30 588.75 145.80 594.47 145.80 C 600.20 145.80 605.92 174.00 611.65 174.00 C 617.37 168.85 623.10 120.82 628.82 114.89 C 634.55 114.89 640.27 131.52 646.00 138.41 C 651.73 145.30 657.45 156.20 663.18 156.20 C 668.90 150.55 674.63 112.14 680.35 104.48 C 686.08 104.48 691.80 110.20 697.53 110.20 C 703.25 108.97 708.98 101.79 714.71 97.09 C 720.43 92.39 726.16 84.52 731.88 82.00 C 737.61 82.00 743.33 82.00 749.06 82.00 C 754.78 82.00 760.51 82.00 766.24 82.00 C 771.96 82.00 777.69 82.00 783.41 82.00 C 789.14 86.04 794.86 102.50 800.59 106.25 C 806.31 106.25 812.04 104.48 817.76 104.48 C 823.49 105.14 829.22 110.20 834.94 110.20 C 840.67 109.93 846.39 103.48 852.12 102.82 C 857.84 102.82 863.57 102.82 869.29 106.25 C 875.02 118.11 880.75 174.00 886.47 174.00 C 892.20 171.35 897.92 98.02 903.65 90.35 C 909.37 90.35 915.10 123.46 920.82 128.00 C 926.55 128.00 935.14 119.33 938.00 117.59 L 938.00 174 L 62.00 174 Z" fill="#32D6E2" opacity="0.055"/><path id="history-wave" data-week-count="52" d="M 62.00 174.00 C 64.86 174.00 73.45 174.00 79.18 174.00 C 84.90 174.00 90.63 174.00 96.35 174.00 C 102.08 174.00 107.80 174.00 113.53 174.00 C 119.25 174.00 124.98 174.00 130.71 174.00 C 136.43 174.00 142.16 174.00 147.88 174.00 C 153.61 174.00 159.33 174.00 165.06 174.00 C 170.78 174.00 176.51 174.00 182.24 174.00 C 187.96 159.90 193.69 89.39 199.41 89.39 C 205.14 89.39 210.86 164.60 216.59 174.00 C 222.31 174.00 228.04 152.68 233.76 145.80 C 239.49 138.91 245.22 133.91 250.94 132.68 C 256.67 132.68 262.39 138.41 268.12 138.41 C 273.84 138.41 279.57 138.04 285.29 132.68 C 291.02 127.32 296.75 106.25 302.47 106.25 C 308.20 107.20 313.92 136.02 319.65 138.41 C 325.37 138.41 331.10 126.55 336.82 120.61 C 342.55 114.68 348.27 103.32 354.00 102.82 C 359.73 102.82 365.45 117.59 371.18 117.59 C 376.90 114.12 382.63 83.57 388.35 82.00 C 394.08 82.00 399.80 108.15 405.53 108.15 C 411.25 108.15 416.98 82.00 422.71 82.00 C 428.43 88.27 434.16 141.09 439.88 145.80 C 445.61 145.80 451.33 116.14 457.06 110.20 C 462.78 110.20 468.51 110.20 474.24 110.20 C 479.96 112.51 485.69 119.34 491.41 124.04 C 497.14 128.74 502.86 134.78 508.59 138.41 C 514.31 142.04 520.04 144.56 525.76 145.80 C 531.49 145.80 537.22 145.80 542.94 145.80 C 548.67 150.50 554.39 169.30 560.12 174.00 C 565.84 174.00 571.57 174.00 577.29 174.00 C 583.02 169.30 588.75 145.80 594.47 145.80 C 600.20 145.80 605.92 174.00 611.65 174.00 C 617.37 168.85 623.10 120.82 628.82 114.89 C 634.55 114.89 640.27 131.52 646.00 138.41 C 651.73 145.30 657.45 156.20 663.18 156.20 C 668.90 150.55 674.63 112.14 680.35 104.48 C 686.08 104.48 691.80 110.20 697.53 110.20 C 703.25 108.97 708.98 101.79 714.71 97.09 C 720.43 92.39 726.16 84.52 731.88 82.00 C 737.61 82.00 743.33 82.00 749.06 82.00 C 754.78 82.00 760.51 82.00 766.24 82.00 C 771.96 82.00 777.69 82.00 783.41 82.00 C 789.14 86.04 794.86 102.50 800.59 106.25 C 806.31 106.25 812.04 104.48 817.76 104.48 C 823.49 105.14 829.22 110.20 834.94 110.20 C 840.67 109.93 846.39 103.48 852.12 102.82 C 857.84 102.82 863.57 102.82 869.29 106.25 C 875.02 118.11 880.75 174.00 886.47 174.00 C 892.20 171.35 897.92 98.02 903.65 90.35 C 909.37 90.35 915.10 123.46 920.82 128.00 C 926.55 128.00 935.14 119.33 938.00 117.59" fill="none" stroke="#32D6E2" stroke-width="2" stroke-linecap="round" stroke-linejoin="round"/><circle class="weekly-point" data-week="0" data-total="0" data-active-days="0" cx="62.00" cy="174.00" r="1.6" fill="#32D6E2" opacity="0.5"/><circle class="weekly-point" data-week="1" data-total="0" data-active-days="0" cx="79.18" cy="174.00" r="1.6" fill="#32D6E2" opacity="0.5"/><circle class="weekly-point" data-week="2" data-total="0" data-active-days="0" cx="96.35" cy="174.00" r="1.6" fill="#32D6E2" opacity="0.5"/><circle class="weekly-point" data-week="3" data-total="0" data-active-days="0" cx="113.53" cy="174.00" r="1.6" fill="#32D6E2" opacity="0.5"/><circle class="weekly-point" data-week="4" data-total="0" data-active-days="0" cx="130.71" cy="174.00" r="1.6" fill="#32D6E2" opacity="0.5"/><circle class="weekly-point" data-week="5" data-total="0" data-active-days="0" cx="147.88" cy="174.00" r="1.6" fill="#32D6E2" opacity="0.5"/><circle class="weekly-point" data-week="6" data-total="0" data-active-days="0" cx="165.06" cy="174.00" r="1.6" fill="#32D6E2" opacity="0.5"/><circle class="weekly-point" data-week="7" data-total="0" data-active-days="0" cx="182.24" cy="174.00" r="1.6" fill="#32D6E2" opacity="0.5"/><circle class="weekly-point" data-week="8" data-total="26" data-active-days="5" cx="199.41" cy="89.39" r="1.6" fill="#32D6E2" opacity="0.5"/><circle class="weekly-point" data-week="9" data-total="0" data-active-days="0" cx="216.59" cy="174.00" r="1.6" fill="#32D6E2" opacity="0.5"/><circle class="weekly-point" data-week="10" data-total="2" data-active-days="2" cx="233.76" cy="145.80" r="1.6" fill="#32D6E2" opacity="0.5"/><circle class="weekly-point" data-week="11" data-total="4" data-active-days="4" cx="250.94" cy="132.68" r="1.6" fill="#32D6E2" opacity="0.5"/><circle class="weekly-point" data-week="12" data-total="3" data-active-days="1" cx="268.12" cy="138.41" r="1.6" fill="#32D6E2" opacity="0.5"/><circle class="weekly-point" data-week="13" data-total="4" data-active-days="3" cx="285.29" cy="132.68" r="1.6" fill="#32D6E2" opacity="0.5"/><circle class="weekly-point" data-week="14" data-total="13" data-active-days="4" cx="302.47" cy="106.25" r="1.6" fill="#32D6E2" opacity="0.5"/><circle class="weekly-point" data-week="15" data-total="3" data-active-days="2" cx="319.65" cy="138.41" r="1.6" fill="#32D6E2" opacity="0.5"/><circle class="weekly-point" data-week="16" data-total="7" data-active-days="3" cx="336.82" cy="120.61" r="1.6" fill="#32D6E2" opacity="0.5"/><circle class="weekly-point" data-week="17" data-total="15" data-active-days="5" cx="354.00" cy="102.82" r="1.6" fill="#32D6E2" opacity="0.5"/><circle class="weekly-point" data-week="18" data-total="8" data-active-days="4" cx="371.18" cy="117.59" r="1.6" fill="#32D6E2" opacity="0.5"/><circle class="weekly-point" data-week="19" data-total="38" data-active-days="6" cx="388.35" cy="82.00" r="1.6" fill="#32D6E2" opacity="0.5"/><circle class="weekly-point" data-week="20" data-total="12" data-active-days="5" cx="405.53" cy="108.15" r="1.6" fill="#32D6E2" opacity="0.5"/><circle class="weekly-point" data-week="21" data-total="36" data-active-days="5" cx="422.71" cy="82.00" r="1.6" fill="#32D6E2" opacity="0.5"/><circle class="weekly-point" data-week="22" data-total="2" data-active-days="1" cx="439.88" cy="145.80" r="1.6" fill="#32D6E2" opacity="0.5"/><circle class="weekly-point" data-week="23" data-total="11" data-active-days="4" cx="457.06" cy="110.20" r="1.6" fill="#32D6E2" opacity="0.5"/><circle class="weekly-point" data-week="24" data-total="11" data-active-days="2" cx="474.24" cy="110.20" r="1.6" fill="#32D6E2" opacity="0.5"/><circle class="weekly-point" data-week="25" data-total="6" data-active-days="2" cx="491.41" cy="124.04" r="1.6" fill="#32D6E2" opacity="0.5"/><circle class="weekly-point" data-week="26" data-total="3" data-active-days="3" cx="508.59" cy="138.41" r="1.6" fill="#32D6E2" opacity="0.5"/><circle class="weekly-point" data-week="27" data-total="2" data-active-days="1" cx="525.76" cy="145.80" r="1.6" fill="#32D6E2" opacity="0.5"/><circle class="weekly-point" data-week="28" data-total="2" data-active-days="1" cx="542.94" cy="145.80" r="1.6" fill="#32D6E2" opacity="0.5"/><circle class="weekly-point" data-week="29" data-total="0" data-active-days="0" cx="560.12" cy="174.00" r="1.6" fill="#32D6E2" opacity="0.5"/><circle class="weekly-point" data-week="30" data-total="0" data-active-days="0" cx="577.29" cy="174.00" r="1.6" fill="#32D6E2" opacity="0.5"/><circle class="weekly-point" data-week="31" data-total="2" data-active-days="1" cx="594.47" cy="145.80" r="1.6" fill="#32D6E2" opacity="0.5"/><circle class="weekly-point" data-week="32" data-total="0" data-active-days="0" cx="611.65" cy="174.00" r="1.6" fill="#32D6E2" opacity="0.5"/><circle class="weekly-point" data-week="33" data-total="9" data-active-days="2" cx="628.82" cy="114.89" r="1.6" fill="#32D6E2" opacity="0.5"/><circle class="weekly-point" data-week="34" data-total="3" data-active-days="3" cx="646.00" cy="138.41" r="1.6" fill="#32D6E2" opacity="0.5"/><circle class="weekly-point" data-week="35" data-total="1" data-active-days="1" cx="663.18" cy="156.20" r="1.6" fill="#32D6E2" opacity="0.5"/><circle class="weekly-point" data-week="36" data-total="14" data-active-days="5" cx="680.35" cy="104.48" r="1.6" fill="#32D6E2" opacity="0.5"/><circle class="weekly-point" data-week="37" data-total="11" data-active-days="2" cx="697.53" cy="110.20" r="1.6" fill="#32D6E2" opacity="0.5"/><circle class="weekly-point" data-week="38" data-total="19" data-active-days="3" cx="714.71" cy="97.09" r="1.6" fill="#32D6E2" opacity="0.5"/><circle class="weekly-point" data-week="39" data-total="59" data-active-days="7" cx="731.88" cy="82.00" r="1.6" fill="#32D6E2" opacity="0.5"/><circle class="weekly-point" data-week="40" data-total="63" data-active-days="6" cx="749.06" cy="82.00" r="1.6" fill="#32D6E2" opacity="0.5"/><circle class="weekly-point" data-week="41" data-total="42" data-active-days="4" cx="766.24" cy="82.00" r="1.6" fill="#32D6E2" opacity="0.5"/><circle class="weekly-point" data-week="42" data-total="41" data-active-days="5" cx="783.41" cy="82.00" r="1.6" fill="#32D6E2" opacity="0.5"/><circle class="weekly-point" data-week="43" data-total="13" data-active-days="2" cx="800.59" cy="106.25" r="1.6" fill="#32D6E2" opacity="0.5"/><circle class="weekly-point" data-week="44" data-total="14" data-active-days="4" cx="817.76" cy="104.48" r="1.6" fill="#32D6E2" opacity="0.5"/><circle class="weekly-point" data-week="45" data-total="11" data-active-days="3" cx="834.94" cy="110.20" r="1.6" fill="#32D6E2" opacity="0.5"/><circle class="weekly-point" data-week="46" data-total="15" data-active-days="5" cx="852.12" cy="102.82" r="1.6" fill="#32D6E2" opacity="0.5"/><circle class="weekly-point" data-week="47" data-total="13" data-active-days="4" cx="869.29" cy="106.25" r="1.6" fill="#32D6E2" opacity="0.5"/><circle class="weekly-point" data-week="48" data-total="0" data-active-days="0" cx="886.47" cy="174.00" r="1.6" fill="#32D6E2" opacity="0.5"/><circle class="weekly-point" data-week="49" data-total="25" data-active-days="2" cx="903.65" cy="90.35" r="1.6" fill="#32D6E2" opacity="0.5"/><circle class="weekly-point" data-week="50" data-total="5" data-active-days="2" cx="920.82" cy="128.00" r="1.6" fill="#32D6E2" opacity="0.5"/><circle class="weekly-point" data-week="51" data-total="8" data-active-days="4" cx="938.00" cy="117.59" r="1.6" fill="#32D6E2" opacity="0.5"/><g id="history-peak-marker"><circle cx="749.06" cy="82.00" r="4" fill="#080B10" stroke="#32D6E2" stroke-width="1.4"/><text class="mono signal" x="749.06" y="76.00" font-size="8" text-anchor="middle">PEAK 63</text></g><g id="history-current-marker"><line x1="938.00" y1="117.59" x2="938.00" y2="174" stroke="#1B7D86" stroke-dasharray="2 4"/><text class="mono muted" x="938.00" y="216" font-size="8" text-anchor="end">CURRENT</text></g></g></svg>
