<svg xmlns="http://www.w3.org/2000/svg" width="100%" viewBox="0 0 360 300" role="img" aria-labelledby="signal-title signal-description">
  <title id="signal-title">Makaren Signal history</title>
  <desc id="signal-description">A 52-week contribution waveform with peak and current-week markers.</desc>
  <style>
      :root { color-scheme: dark; }
      .sans { font-family: -apple-system, BlinkMacSystemFont, 'Segoe UI', sans-serif; }
      .mono { font-family: ui-monospace, SFMono-Regular, Consolas, 'Liberation Mono', monospace; }
      .label { fill: #7D8590; font-size: 11px; letter-spacing: 2px; }
      .copy { fill: #E6EDF3; }
      .muted { fill: #7D8590; }
      .signal { fill: #32D6E2; }
      .line { stroke: #26303B; }
      .final-opacity { opacity: var(--final-opacity, 1); }
      .reveal { animation: reveal var(--reveal-duration, .32s) ease-out var(--reveal-delay, 0s) both; }
      .draw { animation: draw var(--draw-duration, 1.5s) ease-out var(--draw-delay, 0s) both; }
      .connection { vector-effect: non-scaling-stroke; }
      @keyframes reveal { from { opacity: 0; } to { opacity: var(--final-opacity, 1); } }
      @keyframes draw { from { stroke-dashoffset: 1; } to { stroke-dashoffset: 0; } }
      @media (prefers-reduced-motion: reduce) {
        .motion { display: none !important; }
        .reveal { animation: none !important; opacity: var(--final-opacity, 1) !important; }
        .draw { animation: none !important; stroke-dashoffset: 0 !important; }
      }

    </style>
  <rect width="360" height="300" fill="#080B10" rx="12"/>
<g id="history-static"><text class="sans copy" x="24" y="46" font-size="23" font-weight="650" letter-spacing="1">SIGNAL HISTORY</text><text class="mono muted" x="336" y="68" font-size="9" text-anchor="end" letter-spacing="1">52 WEEKS / ROBUST LOG SCALE</text><line id="history-baseline" x1="28.00" y1="218" x2="332.00" y2="218" stroke="#26303B"/><line class="month-tick" x1="28.00" y1="223" x2="28.00" y2="228" stroke="#26303B"/><text class="mono muted month-label" x="28.00" y="244" font-size="8">OCT</text><line class="month-tick" x1="45.88" y1="223" x2="45.88" y2="228" stroke="#26303B"/><line class="month-tick" x1="75.69" y1="223" x2="75.69" y2="228" stroke="#26303B"/><text class="mono muted month-label" x="75.69" y="244" font-size="8">DEC</text><line class="month-tick" x1="99.53" y1="223" x2="99.53" y2="228" stroke="#26303B"/><line class="month-tick" x1="129.33" y1="223" x2="129.33" y2="228" stroke="#26303B"/><text class="mono muted month-label" x="129.33" y="244" font-size="8">FEB</text><line class="month-tick" x1="153.18" y1="223" x2="153.18" y2="228" stroke="#26303B"/><line class="month-tick" x1="177.02" y1="223" x2="177.02" y2="228" stroke="#26303B"/><text class="mono muted month-label" x="177.02" y="244" font-size="8">APR</text><line class="month-tick" x1="200.86" y1="223" x2="200.86" y2="228" stroke="#26303B"/><line class="month-tick" x1="230.67" y1="223" x2="230.67" y2="228" stroke="#26303B"/><text class="mono muted month-label" x="230.67" y="244" font-size="8">JUN</text><line class="month-tick" x1="254.51" y1="223" x2="254.51" y2="228" stroke="#26303B"/><line class="month-tick" x1="278.35" y1="223" x2="278.35" y2="228" stroke="#26303B"/><text class="mono muted month-label" x="278.35" y="244" font-size="8">AUG</text><line class="month-tick" x1="308.16" y1="223" x2="308.16" y2="228" stroke="#26303B"/><line class="month-tick" x1="332.00" y1="223" x2="332.00" y2="228" stroke="#26303B"/><text class="mono muted month-label" x="332.00" y="244" font-size="8">OCT</text></g><defs>
              <clipPath id="history-reveal-clip" clipPathUnits="userSpaceOnUse">
                <rect id="history-reveal-window" x="28.00" y="70" width="0" height="230">
                  <animate id="history-reveal-width" attributeName="width" values="0;304.00;304.00;0;0" keyTimes="0;0.35;0.85;0.97;1" dur="10s" repeatCount="indefinite" calcMode="linear"/>
                </rect>
              </clipPath>
              <filter id="history-scan-glow" x="-100%" y="-20%" width="300%" height="140%"><feGaussianBlur stdDeviation="1.1" result="blur"/><feMerge><feMergeNode in="blur"/><feMergeNode in="SourceGraphic"/></feMerge></filter>
            </defs><g id="history-data" data-animation="cyclic-reveal" data-build-duration="3.5s" data-hold-duration="5.0s" data-collapse-duration="1.2s" data-pause-duration="0.3s" data-cycle="10.0s" clip-path="url(#history-reveal-clip)"><path id="history-area" d="M 28.00 218.00 C 28.99 218.00 31.97 218.00 33.96 218.00 C 35.95 218.00 37.93 218.00 39.92 218.00 C 41.91 218.00 43.90 218.00 45.88 218.00 C 47.87 218.00 49.86 218.00 51.84 218.00 C 53.83 218.00 55.82 218.00 57.80 218.00 C 59.79 218.00 61.78 218.00 63.76 218.00 C 65.75 200.83 67.74 114.99 69.73 114.99 C 71.71 114.99 73.70 206.55 75.69 218.00 C 77.67 218.00 79.66 192.05 81.65 183.66 C 83.63 175.28 85.62 169.20 87.61 167.70 C 89.59 167.70 91.58 174.67 93.57 174.67 C 95.56 174.67 97.54 174.22 99.53 167.70 C 101.52 161.17 103.50 135.52 105.49 135.52 C 107.48 136.68 109.46 171.76 111.45 174.67 C 113.44 174.67 115.42 160.23 117.41 153.01 C 119.40 145.79 121.39 131.96 123.37 131.34 C 125.36 131.34 127.35 149.33 129.33 149.33 C 131.32 145.10 133.31 107.92 135.29 106.00 C 137.28 106.00 139.27 137.83 141.25 137.83 C 143.24 137.83 145.23 106.00 147.22 106.00 C 149.20 113.64 151.19 177.94 153.18 183.66 C 155.16 183.66 157.15 147.56 159.14 140.34 C 161.12 140.34 163.11 140.34 165.10 140.34 C 167.08 143.14 169.07 151.46 171.06 157.18 C 173.05 162.90 175.03 170.26 177.02 174.67 C 179.01 179.09 180.99 182.17 182.98 183.66 C 184.97 183.66 186.95 183.66 188.94 183.66 C 190.93 189.39 192.92 212.28 194.90 218.00 C 196.89 218.00 198.88 218.00 200.86 218.00 C 202.85 212.28 204.84 183.66 206.82 183.66 C 208.81 183.66 210.80 218.00 212.78 218.00 C 214.77 211.73 216.76 153.26 218.75 146.03 C 220.73 146.03 222.72 166.29 224.71 174.67 C 226.69 183.06 228.68 196.34 230.67 196.34 C 232.65 189.45 234.64 142.70 236.63 133.36 C 238.61 133.36 240.60 140.34 242.59 140.34 C 244.58 138.84 246.56 130.09 248.55 124.37 C 250.54 118.65 252.52 109.06 254.51 106.00 C 256.50 106.00 258.48 106.00 260.47 106.00 C 262.46 106.00 264.44 106.00 266.43 106.00 C 268.42 106.00 270.41 106.00 272.39 106.00 C 274.38 110.92 276.37 130.96 278.35 135.52 C 280.34 135.52 282.33 133.36 284.31 133.36 C 286.30 134.17 288.29 140.34 290.27 140.34 C 292.26 140.00 294.25 132.15 296.24 131.34 C 298.22 131.34 300.21 131.34 302.20 135.52 C 304.18 149.96 306.17 218.00 308.16 218.00 C 310.14 214.78 312.13 125.50 314.12 116.17 C 316.10 116.17 318.09 157.02 320.08 162.00 C 322.07 162.00 324.05 151.46 326.04 146.03 C 328.03 140.61 331.01 132.21 332.00 129.45 L 332.00 218 L 28.00 218 Z" fill="#32D6E2" opacity="0.055"/><path id="history-wave" data-week-count="52" d="M 28.00 218.00 C 28.99 218.00 31.97 218.00 33.96 218.00 C 35.95 218.00 37.93 218.00 39.92 218.00 C 41.91 218.00 43.90 218.00 45.88 218.00 C 47.87 218.00 49.86 218.00 51.84 218.00 C 53.83 218.00 55.82 218.00 57.80 218.00 C 59.79 218.00 61.78 218.00 63.76 218.00 C 65.75 200.83 67.74 114.99 69.73 114.99 C 71.71 114.99 73.70 206.55 75.69 218.00 C 77.67 218.00 79.66 192.05 81.65 183.66 C 83.63 175.28 85.62 169.20 87.61 167.70 C 89.59 167.70 91.58 174.67 93.57 174.67 C 95.56 174.67 97.54 174.22 99.53 167.70 C 101.52 161.17 103.50 135.52 105.49 135.52 C 107.48 136.68 109.46 171.76 111.45 174.67 C 113.44 174.67 115.42 160.23 117.41 153.01 C 119.40 145.79 121.39 131.96 123.37 131.34 C 125.36 131.34 127.35 149.33 129.33 149.33 C 131.32 145.10 133.31 107.92 135.29 106.00 C 137.28 106.00 139.27 137.83 141.25 137.83 C 143.24 137.83 145.23 106.00 147.22 106.00 C 149.20 113.64 151.19 177.94 153.18 183.66 C 155.16 183.66 157.15 147.56 159.14 140.34 C 161.12 140.34 163.11 140.34 165.10 140.34 C 167.08 143.14 169.07 151.46 171.06 157.18 C 173.05 162.90 175.03 170.26 177.02 174.67 C 179.01 179.09 180.99 182.17 182.98 183.66 C 184.97 183.66 186.95 183.66 188.94 183.66 C 190.93 189.39 192.92 212.28 194.90 218.00 C 196.89 218.00 198.88 218.00 200.86 218.00 C 202.85 212.28 204.84 183.66 206.82 183.66 C 208.81 183.66 210.80 218.00 212.78 218.00 C 214.77 211.73 216.76 153.26 218.75 146.03 C 220.73 146.03 222.72 166.29 224.71 174.67 C 226.69 183.06 228.68 196.34 230.67 196.34 C 232.65 189.45 234.64 142.70 236.63 133.36 C 238.61 133.36 240.60 140.34 242.59 140.34 C 244.58 138.84 246.56 130.09 248.55 124.37 C 250.54 118.65 252.52 109.06 254.51 106.00 C 256.50 106.00 258.48 106.00 260.47 106.00 C 262.46 106.00 264.44 106.00 266.43 106.00 C 268.42 106.00 270.41 106.00 272.39 106.00 C 274.38 110.92 276.37 130.96 278.35 135.52 C 280.34 135.52 282.33 133.36 284.31 133.36 C 286.30 134.17 288.29 140.34 290.27 140.34 C 292.26 140.00 294.25 132.15 296.24 131.34 C 298.22 131.34 300.21 131.34 302.20 135.52 C 304.18 149.96 306.17 218.00 308.16 218.00 C 310.14 214.78 312.13 125.50 314.12 116.17 C 316.10 116.17 318.09 157.02 320.08 162.00 C 322.07 162.00 324.05 151.46 326.04 146.03 C 328.03 140.61 331.01 132.21 332.00 129.45" fill="none" stroke="#32D6E2" stroke-width="2" stroke-linecap="round" stroke-linejoin="round"/><circle class="weekly-point" data-week="0" data-total="0" data-active-days="0" cx="28.00" cy="218.00" r="1.6" fill="#32D6E2" opacity="0.5"/><circle class="weekly-point" data-week="1" data-total="0" data-active-days="0" cx="33.96" cy="218.00" r="1.6" fill="#32D6E2" opacity="0.5"/><circle class="weekly-point" data-week="2" data-total="0" data-active-days="0" cx="39.92" cy="218.00" r="1.6" fill="#32D6E2" opacity="0.5"/><circle class="weekly-point" data-week="3" data-total="0" data-active-days="0" cx="45.88" cy="218.00" r="1.6" fill="#32D6E2" opacity="0.5"/><circle class="weekly-point" data-week="4" data-total="0" data-active-days="0" cx="51.84" cy="218.00" r="1.6" fill="#32D6E2" opacity="0.5"/><circle class="weekly-point" data-week="5" data-total="0" data-active-days="0" cx="57.80" cy="218.00" r="1.6" fill="#32D6E2" opacity="0.5"/><circle class="weekly-point" data-week="6" data-total="0" data-active-days="0" cx="63.76" cy="218.00" r="1.6" fill="#32D6E2" opacity="0.5"/><circle class="weekly-point" data-week="7" data-total="26" data-active-days="5" cx="69.73" cy="114.99" r="1.6" fill="#32D6E2" opacity="0.5"/><circle class="weekly-point" data-week="8" data-total="0" data-active-days="0" cx="75.69" cy="218.00" r="1.6" fill="#32D6E2" opacity="0.5"/><circle class="weekly-point" data-week="9" data-total="2" data-active-days="2" cx="81.65" cy="183.66" r="1.6" fill="#32D6E2" opacity="0.5"/><circle class="weekly-point" data-week="10" data-total="4" data-active-days="4" cx="87.61" cy="167.70" r="1.6" fill="#32D6E2" opacity="0.5"/><circle class="weekly-point" data-week="11" data-total="3" data-active-days="1" cx="93.57" cy="174.67" r="1.6" fill="#32D6E2" opacity="0.5"/><circle class="weekly-point" data-week="12" data-total="4" data-active-days="3" cx="99.53" cy="167.70" r="1.6" fill="#32D6E2" opacity="0.5"/><circle class="weekly-point" data-week="13" data-total="13" data-active-days="4" cx="105.49" cy="135.52" r="1.6" fill="#32D6E2" opacity="0.5"/><circle class="weekly-point" data-week="14" data-total="3" data-active-days="2" cx="111.45" cy="174.67" r="1.6" fill="#32D6E2" opacity="0.5"/><circle class="weekly-point" data-week="15" data-total="7" data-active-days="3" cx="117.41" cy="153.01" r="1.6" fill="#32D6E2" opacity="0.5"/><circle class="weekly-point" data-week="16" data-total="15" data-active-days="5" cx="123.37" cy="131.34" r="1.6" fill="#32D6E2" opacity="0.5"/><circle class="weekly-point" data-week="17" data-total="8" data-active-days="4" cx="129.33" cy="149.33" r="1.6" fill="#32D6E2" opacity="0.5"/><circle class="weekly-point" data-week="18" data-total="38" data-active-days="6" cx="135.29" cy="106.00" r="1.6" fill="#32D6E2" opacity="0.5"/><circle class="weekly-point" data-week="19" data-total="12" data-active-days="5" cx="141.25" cy="137.83" r="1.6" fill="#32D6E2" opacity="0.5"/><circle class="weekly-point" data-week="20" data-total="36" data-active-days="5" cx="147.22" cy="106.00" r="1.6" fill="#32D6E2" opacity="0.5"/><circle class="weekly-point" data-week="21" data-total="2" data-active-days="1" cx="153.18" cy="183.66" r="1.6" fill="#32D6E2" opacity="0.5"/><circle class="weekly-point" data-week="22" data-total="11" data-active-days="4" cx="159.14" cy="140.34" r="1.6" fill="#32D6E2" opacity="0.5"/><circle class="weekly-point" data-week="23" data-total="11" data-active-days="2" cx="165.10" cy="140.34" r="1.6" fill="#32D6E2" opacity="0.5"/><circle class="weekly-point" data-week="24" data-total="6" data-active-days="2" cx="171.06" cy="157.18" r="1.6" fill="#32D6E2" opacity="0.5"/><circle class="weekly-point" data-week="25" data-total="3" data-active-days="3" cx="177.02" cy="174.67" r="1.6" fill="#32D6E2" opacity="0.5"/><circle class="weekly-point" data-week="26" data-total="2" data-active-days="1" cx="182.98" cy="183.66" r="1.6" fill="#32D6E2" opacity="0.5"/><circle class="weekly-point" data-week="27" data-total="2" data-active-days="1" cx="188.94" cy="183.66" r="1.6" fill="#32D6E2" opacity="0.5"/><circle class="weekly-point" data-week="28" data-total="0" data-active-days="0" cx="194.90" cy="218.00" r="1.6" fill="#32D6E2" opacity="0.5"/><circle class="weekly-point" data-week="29" data-total="0" data-active-days="0" cx="200.86" cy="218.00" r="1.6" fill="#32D6E2" opacity="0.5"/><circle class="weekly-point" data-week="30" data-total="2" data-active-days="1" cx="206.82" cy="183.66" r="1.6" fill="#32D6E2" opacity="0.5"/><circle class="weekly-point" data-week="31" data-total="0" data-active-days="0" cx="212.78" cy="218.00" r="1.6" fill="#32D6E2" opacity="0.5"/><circle class="weekly-point" data-week="32" data-total="9" data-active-days="2" cx="218.75" cy="146.03" r="1.6" fill="#32D6E2" opacity="0.5"/><circle class="weekly-point" data-week="33" data-total="3" data-active-days="3" cx="224.71" cy="174.67" r="1.6" fill="#32D6E2" opacity="0.5"/><circle class="weekly-point" data-week="34" data-total="1" data-active-days="1" cx="230.67" cy="196.34" r="1.6" fill="#32D6E2" opacity="0.5"/><circle class="weekly-point" data-week="35" data-total="14" data-active-days="5" cx="236.63" cy="133.36" r="1.6" fill="#32D6E2" opacity="0.5"/><circle class="weekly-point" data-week="36" data-total="11" data-active-days="2" cx="242.59" cy="140.34" r="1.6" fill="#32D6E2" opacity="0.5"/><circle class="weekly-point" data-week="37" data-total="19" data-active-days="3" cx="248.55" cy="124.37" r="1.6" fill="#32D6E2" opacity="0.5"/><circle class="weekly-point" data-week="38" data-total="59" data-active-days="7" cx="254.51" cy="106.00" r="1.6" fill="#32D6E2" opacity="0.5"/><circle class="weekly-point" data-week="39" data-total="63" data-active-days="6" cx="260.47" cy="106.00" r="1.6" fill="#32D6E2" opacity="0.5"/><circle class="weekly-point" data-week="40" data-total="42" data-active-days="4" cx="266.43" cy="106.00" r="1.6" fill="#32D6E2" opacity="0.5"/><circle class="weekly-point" data-week="41" data-total="41" data-active-days="5" cx="272.39" cy="106.00" r="1.6" fill="#32D6E2" opacity="0.5"/><circle class="weekly-point" data-week="42" data-total="13" data-active-days="2" cx="278.35" cy="135.52" r="1.6" fill="#32D6E2" opacity="0.5"/><circle class="weekly-point" data-week="43" data-total="14" data-active-days="4" cx="284.31" cy="133.36" r="1.6" fill="#32D6E2" opacity="0.5"/><circle class="weekly-point" data-week="44" data-total="11" data-active-days="3" cx="290.27" cy="140.34" r="1.6" fill="#32D6E2" opacity="0.5"/><circle class="weekly-point" data-week="45" data-total="15" data-active-days="5" cx="296.24" cy="131.34" r="1.6" fill="#32D6E2" opacity="0.5"/><circle class="weekly-point" data-week="46" data-total="13" data-active-days="4" cx="302.20" cy="135.52" r="1.6" fill="#32D6E2" opacity="0.5"/><circle class="weekly-point" data-week="47" data-total="0" data-active-days="0" cx="308.16" cy="218.00" r="1.6" fill="#32D6E2" opacity="0.5"/><circle class="weekly-point" data-week="48" data-total="25" data-active-days="2" cx="314.12" cy="116.17" r="1.6" fill="#32D6E2" opacity="0.5"/><circle class="weekly-point" data-week="49" data-total="5" data-active-days="2" cx="320.08" cy="162.00" r="1.6" fill="#32D6E2" opacity="0.5"/><circle class="weekly-point" data-week="50" data-total="9" data-active-days="5" cx="326.04" cy="146.03" r="1.6" fill="#32D6E2" opacity="0.5"/><circle class="weekly-point" data-week="51" data-total="16" data-active-days="1" cx="332.00" cy="129.45" r="1.6" fill="#32D6E2" opacity="0.5"/><g id="history-peak-marker"><circle cx="260.47" cy="106.00" r="4" fill="#080B10" stroke="#32D6E2" stroke-width="1.4"/><text class="mono signal" x="260.47" y="93.00" font-size="8" text-anchor="middle">PEAK 63</text></g><g id="history-current-marker"><line x1="332.00" y1="129.45" x2="332.00" y2="218" stroke="#1B7D86" stroke-dasharray="2 4"/><text class="mono muted" x="332.00" y="260" font-size="8" text-anchor="end">CURRENT</text></g></g><line id="history-scan-front" class="motion" x1="28.00" y1="70" x2="28.00" y2="221" stroke="#32D6E2" stroke-width="1.2" opacity="0.72" filter="url(#history-scan-glow)">
              <animate attributeName="x1" values="28.00;332.00;332.00;28.00;28.00" keyTimes="0;0.35;0.85;0.97;1" dur="10s" repeatCount="indefinite" calcMode="linear"/>
              <animate attributeName="x2" values="28.00;332.00;332.00;28.00;28.00" keyTimes="0;0.35;0.85;0.97;1" dur="10s" repeatCount="indefinite" calcMode="linear"/>
              <animate attributeName="opacity" values="0.72;0;0.72;0;0" keyTimes="0;0.35;0.85;0.97;1" dur="10s" repeatCount="indefinite" calcMode="discrete"/>
            </line></svg>
