<svg xmlns="http://www.w3.org/2000/svg" width="100%" viewBox="0 0 360 300" role="img" aria-labelledby="signal-title signal-description">
  <title id="signal-title">Makaren Signal history</title>
  <desc id="signal-description">A 52-week contribution waveform with peak and current-week markers.</desc>
  <style>
      :root { color-scheme: dark; }
      .sans { font-family: -apple-system, BlinkMacSystemFont, 'Segoe UI', sans-serif; }
      .mono { font-family: ui-monospace, SFMono-Regular, Consolas, 'Liberation Mono', monospace; }
      .label { fill: #7D8590; font-size: 11px; letter-spacing: 2px; }
      .copy { fill: #E6EDF3; }
      .muted { fill: #7D8590; }
      .signal { fill: #32D6E2; }
      .line { stroke: #26303B; }
      .final-opacity { opacity: var(--final-opacity, 1); }
      .reveal { animation: reveal var(--reveal-duration, .32s) ease-out var(--reveal-delay, 0s) both; }
      .draw { animation: draw var(--draw-duration, 1.5s) ease-out var(--draw-delay, 0s) both; }
      .connection { vector-effect: non-scaling-stroke; }
      @keyframes reveal { from { opacity: 0; } to { opacity: var(--final-opacity, 1); } }
      @keyframes draw { from { stroke-dashoffset: 1; } to { stroke-dashoffset: 0; } }
      @media (prefers-reduced-motion: reduce) {
        .motion { display: none !important; }
        .reveal { animation: none !important; opacity: var(--final-opacity, 1) !important; }
        .draw { animation: none !important; stroke-dashoffset: 0 !important; }
      }

      .motion { display: none !important; }
      .reveal { animation: none !important; opacity: var(--final-opacity, 1) !important; }
      .draw { animation: none !important; stroke-dashoffset: 0 !important; }

    </style>
  <rect width="360" height="300" fill="#080B10" rx="12"/>
<g id="history-static"><text class="sans copy" x="24" y="46" font-size="23" font-weight="650" letter-spacing="1">SIGNAL HISTORY</text><text class="mono muted" x="336" y="68" font-size="9" text-anchor="end" letter-spacing="1">52 WEEKS / ROBUST LOG SCALE</text><line id="history-baseline" x1="28.00" y1="218" x2="332.00" y2="218" stroke="#26303B"/><line class="month-tick" x1="28.00" y1="223" x2="28.00" y2="228" stroke="#26303B"/><text class="mono muted month-label" x="28.00" y="244" font-size="8">OCT</text><line class="month-tick" x1="51.84" y1="223" x2="51.84" y2="228" stroke="#26303B"/><line class="month-tick" x1="75.69" y1="223" x2="75.69" y2="228" stroke="#26303B"/><text class="mono muted month-label" x="75.69" y="244" font-size="8">DEC</text><line class="month-tick" x1="105.49" y1="223" x2="105.49" y2="228" stroke="#26303B"/><line class="month-tick" x1="129.33" y1="223" x2="129.33" y2="228" stroke="#26303B"/><text class="mono muted month-label" x="129.33" y="244" font-size="8">FEB</text><line class="month-tick" x1="153.18" y1="223" x2="153.18" y2="228" stroke="#26303B"/><line class="month-tick" x1="177.02" y1="223" x2="177.02" y2="228" stroke="#26303B"/><text class="mono muted month-label" x="177.02" y="244" font-size="8">APR</text><line class="month-tick" x1="206.82" y1="223" x2="206.82" y2="228" stroke="#26303B"/><line class="month-tick" x1="230.67" y1="223" x2="230.67" y2="228" stroke="#26303B"/><text class="mono muted month-label" x="230.67" y="244" font-size="8">JUN</text><line class="month-tick" x1="254.51" y1="223" x2="254.51" y2="228" stroke="#26303B"/><line class="month-tick" x1="284.31" y1="223" x2="284.31" y2="228" stroke="#26303B"/><text class="mono muted month-label" x="284.31" y="244" font-size="8">AUG</text><line class="month-tick" x1="308.16" y1="223" x2="308.16" y2="228" stroke="#26303B"/></g><g id="history-data" data-animation="cyclic-reveal" data-build-duration="3.5s" data-hold-duration="5.0s" data-collapse-duration="1.2s" data-pause-duration="0.3s" data-cycle="10.0s"><path id="history-area" d="M 28.00 218.00 C 28.99 218.00 31.97 218.00 33.96 218.00 C 35.95 218.00 37.93 218.00 39.92 218.00 C 41.91 218.00 43.90 218.00 45.88 218.00 C 47.87 218.00 49.86 218.00 51.84 218.00 C 53.83 218.00 55.82 218.00 57.80 218.00 C 59.79 218.00 61.78 218.00 63.76 218.00 C 65.75 207.73 67.74 174.12 69.73 156.41 C 71.71 138.70 73.70 111.74 75.69 111.74 C 77.67 122.01 79.66 208.23 81.65 218.00 C 83.63 218.00 85.62 181.49 87.61 170.34 C 89.59 159.20 91.58 151.11 93.57 151.11 C 95.56 159.05 97.54 218.00 99.53 218.00 C 101.52 213.26 103.50 131.91 105.49 122.69 C 107.48 122.69 109.46 154.73 111.45 162.67 C 113.44 170.34 115.42 170.34 117.41 170.34 C 119.40 163.01 121.39 122.61 123.37 118.64 C 125.36 118.64 127.35 146.52 129.33 146.52 C 131.32 144.41 133.31 112.75 135.29 106.00 C 137.28 106.00 139.27 106.00 141.25 106.00 C 143.24 106.46 145.23 106.00 147.22 108.75 C 149.20 111.53 151.19 116.40 153.18 122.69 C 155.16 128.98 157.15 146.52 159.14 146.52 C 161.12 145.84 163.11 118.64 165.10 118.64 C 167.08 126.58 169.07 189.53 171.06 194.17 C 173.05 194.17 175.03 146.52 177.02 146.52 C 179.01 146.52 180.99 191.48 182.98 194.17 C 184.97 194.17 186.95 162.67 188.94 162.67 C 190.93 166.65 192.92 208.78 194.90 218.00 C 196.89 218.00 198.88 218.00 200.86 218.00 C 202.85 218.00 204.84 218.00 206.82 218.00 C 208.81 211.71 210.80 193.43 212.78 180.23 C 214.77 167.04 216.76 138.85 218.75 138.85 C 220.73 141.17 222.72 188.92 224.71 194.17 C 226.69 194.17 228.68 177.52 230.67 170.34 C 232.65 163.17 234.64 160.33 236.63 151.11 C 238.61 141.89 240.60 121.03 242.59 115.02 C 244.58 115.02 246.56 115.02 248.55 115.02 C 250.54 113.52 252.52 107.50 254.51 106.00 C 256.50 106.00 258.48 106.00 260.47 106.00 C 262.46 106.00 264.44 106.00 266.43 106.00 C 268.42 107.80 270.41 116.78 272.39 116.78 C 274.38 116.78 276.37 106.00 278.35 106.00 C 280.34 109.13 282.33 133.14 284.31 135.57 C 286.30 135.57 288.29 120.61 290.27 120.61 C 292.26 125.12 294.25 162.67 296.24 162.67 C 298.22 160.46 300.21 107.35 302.20 107.35 C 304.18 116.57 306.17 205.85 308.16 218.00 C 310.14 218.00 312.13 198.90 314.12 180.23 C 316.10 161.57 318.09 112.90 320.08 106.00 C 322.07 106.00 324.05 128.12 326.04 138.85 C 328.03 149.57 331.01 165.10 332.00 170.34 L 332.00 218 L 28.00 218 Z" fill="#32D6E2" opacity="0.055"/><path id="history-wave" data-week-count="52" d="M 28.00 218.00 C 28.99 218.00 31.97 218.00 33.96 218.00 C 35.95 218.00 37.93 218.00 39.92 218.00 C 41.91 218.00 43.90 218.00 45.88 218.00 C 47.87 218.00 49.86 218.00 51.84 218.00 C 53.83 218.00 55.82 218.00 57.80 218.00 C 59.79 218.00 61.78 218.00 63.76 218.00 C 65.75 207.73 67.74 174.12 69.73 156.41 C 71.71 138.70 73.70 111.74 75.69 111.74 C 77.67 122.01 79.66 208.23 81.65 218.00 C 83.63 218.00 85.62 181.49 87.61 170.34 C 89.59 159.20 91.58 151.11 93.57 151.11 C 95.56 159.05 97.54 218.00 99.53 218.00 C 101.52 213.26 103.50 131.91 105.49 122.69 C 107.48 122.69 109.46 154.73 111.45 162.67 C 113.44 170.34 115.42 170.34 117.41 170.34 C 119.40 163.01 121.39 122.61 123.37 118.64 C 125.36 118.64 127.35 146.52 129.33 146.52 C 131.32 144.41 133.31 112.75 135.29 106.00 C 137.28 106.00 139.27 106.00 141.25 106.00 C 143.24 106.46 145.23 106.00 147.22 108.75 C 149.20 111.53 151.19 116.40 153.18 122.69 C 155.16 128.98 157.15 146.52 159.14 146.52 C 161.12 145.84 163.11 118.64 165.10 118.64 C 167.08 126.58 169.07 189.53 171.06 194.17 C 173.05 194.17 175.03 146.52 177.02 146.52 C 179.01 146.52 180.99 191.48 182.98 194.17 C 184.97 194.17 186.95 162.67 188.94 162.67 C 190.93 166.65 192.92 208.78 194.90 218.00 C 196.89 218.00 198.88 218.00 200.86 218.00 C 202.85 218.00 204.84 218.00 206.82 218.00 C 208.81 211.71 210.80 193.43 212.78 180.23 C 214.77 167.04 216.76 138.85 218.75 138.85 C 220.73 141.17 222.72 188.92 224.71 194.17 C 226.69 194.17 228.68 177.52 230.67 170.34 C 232.65 163.17 234.64 160.33 236.63 151.11 C 238.61 141.89 240.60 121.03 242.59 115.02 C 244.58 115.02 246.56 115.02 248.55 115.02 C 250.54 113.52 252.52 107.50 254.51 106.00 C 256.50 106.00 258.48 106.00 260.47 106.00 C 262.46 106.00 264.44 106.00 266.43 106.00 C 268.42 107.80 270.41 116.78 272.39 116.78 C 274.38 116.78 276.37 106.00 278.35 106.00 C 280.34 109.13 282.33 133.14 284.31 135.57 C 286.30 135.57 288.29 120.61 290.27 120.61 C 292.26 125.12 294.25 162.67 296.24 162.67 C 298.22 160.46 300.21 107.35 302.20 107.35 C 304.18 116.57 306.17 205.85 308.16 218.00 C 310.14 218.00 312.13 198.90 314.12 180.23 C 316.10 161.57 318.09 112.90 320.08 106.00 C 322.07 106.00 324.05 128.12 326.04 138.85 C 328.03 149.57 331.01 165.10 332.00 170.34" fill="none" stroke="#32D6E2" stroke-width="2" stroke-linecap="round" stroke-linejoin="round"/><circle class="weekly-point" data-week="0" data-total="0" data-active-days="0" cx="28.00" cy="218.00" r="1.6" fill="#32D6E2" opacity="0.5"/><circle class="weekly-point" data-week="1" data-total="0" data-active-days="0" cx="33.96" cy="218.00" r="1.6" fill="#32D6E2" opacity="0.5"/><circle class="weekly-point" data-week="2" data-total="0" data-active-days="0" cx="39.92" cy="218.00" r="1.6" fill="#32D6E2" opacity="0.5"/><circle class="weekly-point" data-week="3" data-total="0" data-active-days="0" cx="45.88" cy="218.00" r="1.6" fill="#32D6E2" opacity="0.5"/><circle class="weekly-point" data-week="4" data-total="0" data-active-days="0" cx="51.84" cy="218.00" r="1.6" fill="#32D6E2" opacity="0.5"/><circle class="weekly-point" data-week="5" data-total="0" data-active-days="0" cx="57.80" cy="218.00" r="1.6" fill="#32D6E2" opacity="0.5"/><circle class="weekly-point" data-week="6" data-total="0" data-active-days="0" cx="63.76" cy="218.00" r="1.6" fill="#32D6E2" opacity="0.5"/><circle class="weekly-point" data-week="7" data-total="5" data-active-days="2" cx="69.73" cy="156.41" r="1.6" fill="#32D6E2" opacity="0.5"/><circle class="weekly-point" data-week="8" data-total="21" data-active-days="3" cx="75.69" cy="111.74" r="1.6" fill="#32D6E2" opacity="0.5"/><circle class="weekly-point" data-week="9" data-total="0" data-active-days="0" cx="81.65" cy="218.00" r="1.6" fill="#32D6E2" opacity="0.5"/><circle class="weekly-point" data-week="10" data-total="3" data-active-days="3" cx="87.61" cy="170.34" r="1.6" fill="#32D6E2" opacity="0.5"/><circle class="weekly-point" data-week="11" data-total="6" data-active-days="4" cx="93.57" cy="151.11" r="1.6" fill="#32D6E2" opacity="0.5"/><circle class="weekly-point" data-week="12" data-total="0" data-active-days="0" cx="99.53" cy="218.00" r="1.6" fill="#32D6E2" opacity="0.5"/><circle class="weekly-point" data-week="13" data-total="15" data-active-days="6" cx="105.49" cy="122.69" r="1.6" fill="#32D6E2" opacity="0.5"/><circle class="weekly-point" data-week="14" data-total="4" data-active-days="2" cx="111.45" cy="162.67" r="1.6" fill="#32D6E2" opacity="0.5"/><circle class="weekly-point" data-week="15" data-total="3" data-active-days="2" cx="117.41" cy="170.34" r="1.6" fill="#32D6E2" opacity="0.5"/><circle class="weekly-point" data-week="16" data-total="17" data-active-days="6" cx="123.37" cy="118.64" r="1.6" fill="#32D6E2" opacity="0.5"/><circle class="weekly-point" data-week="17" data-total="7" data-active-days="3" cx="129.33" cy="146.52" r="1.6" fill="#32D6E2" opacity="0.5"/><circle class="weekly-point" data-week="18" data-total="25" data-active-days="5" cx="135.29" cy="106.00" r="1.6" fill="#32D6E2" opacity="0.5"/><circle class="weekly-point" data-week="19" data-total="27" data-active-days="6" cx="141.25" cy="106.00" r="1.6" fill="#32D6E2" opacity="0.5"/><circle class="weekly-point" data-week="20" data-total="23" data-active-days="4" cx="147.22" cy="108.75" r="1.6" fill="#32D6E2" opacity="0.5"/><circle class="weekly-point" data-week="21" data-total="15" data-active-days="3" cx="153.18" cy="122.69" r="1.6" fill="#32D6E2" opacity="0.5"/><circle class="weekly-point" data-week="22" data-total="7" data-active-days="3" cx="159.14" cy="146.52" r="1.6" fill="#32D6E2" opacity="0.5"/><circle class="weekly-point" data-week="23" data-total="17" data-active-days="4" cx="165.10" cy="118.64" r="1.6" fill="#32D6E2" opacity="0.5"/><circle class="weekly-point" data-week="24" data-total="1" data-active-days="1" cx="171.06" cy="194.17" r="1.6" fill="#32D6E2" opacity="0.5"/><circle class="weekly-point" data-week="25" data-total="7" data-active-days="3" cx="177.02" cy="146.52" r="1.6" fill="#32D6E2" opacity="0.5"/><circle class="weekly-point" data-week="26" data-total="1" data-active-days="1" cx="182.98" cy="194.17" r="1.6" fill="#32D6E2" opacity="0.5"/><circle class="weekly-point" data-week="27" data-total="4" data-active-days="2" cx="188.94" cy="162.67" r="1.6" fill="#32D6E2" opacity="0.5"/><circle class="weekly-point" data-week="28" data-total="0" data-active-days="0" cx="194.90" cy="218.00" r="1.6" fill="#32D6E2" opacity="0.5"/><circle class="weekly-point" data-week="29" data-total="0" data-active-days="0" cx="200.86" cy="218.00" r="1.6" fill="#32D6E2" opacity="0.5"/><circle class="weekly-point" data-week="30" data-total="0" data-active-days="0" cx="206.82" cy="218.00" r="1.6" fill="#32D6E2" opacity="0.5"/><circle class="weekly-point" data-week="31" data-total="2" data-active-days="1" cx="212.78" cy="180.23" r="1.6" fill="#32D6E2" opacity="0.5"/><circle class="weekly-point" data-week="32" data-total="9" data-active-days="2" cx="218.75" cy="138.85" r="1.6" fill="#32D6E2" opacity="0.5"/><circle class="weekly-point" data-week="33" data-total="1" data-active-days="1" cx="224.71" cy="194.17" r="1.6" fill="#32D6E2" opacity="0.5"/><circle class="weekly-point" data-week="34" data-total="3" data-active-days="3" cx="230.67" cy="170.34" r="1.6" fill="#32D6E2" opacity="0.5"/><circle class="weekly-point" data-week="35" data-total="6" data-active-days="2" cx="236.63" cy="151.11" r="1.6" fill="#32D6E2" opacity="0.5"/><circle class="weekly-point" data-week="36" data-total="19" data-active-days="5" cx="242.59" cy="115.02" r="1.6" fill="#32D6E2" opacity="0.5"/><circle class="weekly-point" data-week="37" data-total="19" data-active-days="3" cx="248.55" cy="115.02" r="1.6" fill="#32D6E2" opacity="0.5"/><circle class="weekly-point" data-week="38" data-total="34" data-active-days="4" cx="254.51" cy="106.00" r="1.6" fill="#32D6E2" opacity="0.5"/><circle class="weekly-point" data-week="39" data-total="65" data-active-days="6" cx="260.47" cy="106.00" r="1.6" fill="#32D6E2" opacity="0.5"/><circle class="weekly-point" data-week="40" data-total="65" data-active-days="7" cx="266.43" cy="106.00" r="1.6" fill="#32D6E2" opacity="0.5"/><circle class="weekly-point" data-week="41" data-total="18" data-active-days="3" cx="272.39" cy="116.78" r="1.6" fill="#32D6E2" opacity="0.5"/><circle class="weekly-point" data-week="42" data-total="35" data-active-days="3" cx="278.35" cy="106.00" r="1.6" fill="#32D6E2" opacity="0.5"/><circle class="weekly-point" data-week="43" data-total="10" data-active-days="3" cx="284.31" cy="135.57" r="1.6" fill="#32D6E2" opacity="0.5"/><circle class="weekly-point" data-week="44" data-total="16" data-active-days="5" cx="290.27" cy="120.61" r="1.6" fill="#32D6E2" opacity="0.5"/><circle class="weekly-point" data-week="45" data-total="4" data-active-days="2" cx="296.24" cy="162.67" r="1.6" fill="#32D6E2" opacity="0.5"/><circle class="weekly-point" data-week="46" data-total="24" data-active-days="7" cx="302.20" cy="107.35" r="1.6" fill="#32D6E2" opacity="0.5"/><circle class="weekly-point" data-week="47" data-total="0" data-active-days="0" cx="308.16" cy="218.00" r="1.6" fill="#32D6E2" opacity="0.5"/><circle class="weekly-point" data-week="48" data-total="2" data-active-days="1" cx="314.12" cy="180.23" r="1.6" fill="#32D6E2" opacity="0.5"/><circle class="weekly-point" data-week="49" data-total="25" data-active-days="2" cx="320.08" cy="106.00" r="1.6" fill="#32D6E2" opacity="0.5"/><circle class="weekly-point" data-week="50" data-total="9" data-active-days="4" cx="326.04" cy="138.85" r="1.6" fill="#32D6E2" opacity="0.5"/><circle class="weekly-point" data-week="51" data-total="3" data-active-days="2" cx="332.00" cy="170.34" r="1.6" fill="#32D6E2" opacity="0.5"/><g id="history-peak-marker"><circle cx="260.47" cy="106.00" r="4" fill="#080B10" stroke="#32D6E2" stroke-width="1.4"/><text class="mono signal" x="260.47" y="93.00" font-size="8" text-anchor="middle">PEAK 65</text></g><g id="history-current-marker"><line x1="332.00" y1="170.34" x2="332.00" y2="218" stroke="#1B7D86" stroke-dasharray="2 4"/><text class="mono muted" x="332.00" y="260" font-size="8" text-anchor="end">CURRENT</text></g></g></svg>
