<svg xmlns="http://www.w3.org/2000/svg" width="100%" viewBox="0 0 1000 230" role="img" aria-labelledby="signal-title signal-description">
  <title id="signal-title">Makaren Signal history</title>
  <desc id="signal-description">A 52-week contribution waveform with peak and current-week markers.</desc>
  <style>
      :root { color-scheme: dark; }
      .sans { font-family: -apple-system, BlinkMacSystemFont, 'Segoe UI', sans-serif; }
      .mono { font-family: ui-monospace, SFMono-Regular, Consolas, 'Liberation Mono', monospace; }
      .label { fill: #7D8590; font-size: 11px; letter-spacing: 2px; }
      .copy { fill: #E6EDF3; }
      .muted { fill: #7D8590; }
      .signal { fill: #32D6E2; }
      .line { stroke: #26303B; }
      .final-opacity { opacity: var(--final-opacity, 1); }
      .reveal { animation: reveal var(--reveal-duration, .32s) ease-out var(--reveal-delay, 0s) both; }
      .draw { animation: draw var(--draw-duration, 1.5s) ease-out var(--draw-delay, 0s) both; }
      .connection { vector-effect: non-scaling-stroke; }
      @keyframes reveal { from { opacity: 0; } to { opacity: var(--final-opacity, 1); } }
      @keyframes draw { from { stroke-dashoffset: 1; } to { stroke-dashoffset: 0; } }
      @media (prefers-reduced-motion: reduce) {
        .motion { display: none !important; }
        .reveal { animation: none !important; opacity: var(--final-opacity, 1) !important; }
        .draw { animation: none !important; stroke-dashoffset: 0 !important; }
      }

      .motion { display: none !important; }
      .reveal { animation: none !important; opacity: var(--final-opacity, 1) !important; }
      .draw { animation: none !important; stroke-dashoffset: 0 !important; }

    </style>
  <rect width="1000" height="230" fill="#080B10" rx="12"/>
<g id="history-static"><text class="sans copy" x="48" y="48" font-size="25" font-weight="650" letter-spacing="1">SIGNAL HISTORY</text><text class="mono muted" x="952" y="46" font-size="9" text-anchor="end" letter-spacing="1">52 WEEKS / ROBUST LOG SCALE</text><line id="history-baseline" x1="62.00" y1="174" x2="938.00" y2="174" stroke="#26303B"/><line class="month-tick" x1="62.00" y1="179" x2="62.00" y2="184" stroke="#26303B"/><text class="mono muted month-label" x="62.00" y="200" font-size="8">AUG</text><line class="month-tick" x1="96.35" y1="179" x2="96.35" y2="184" stroke="#26303B"/><text class="mono muted month-label" x="96.35" y="200" font-size="8">SEP</text><line class="month-tick" x1="165.06" y1="179" x2="165.06" y2="184" stroke="#26303B"/><text class="mono muted month-label" x="165.06" y="200" font-size="8">OCT</text><line class="month-tick" x1="250.94" y1="179" x2="250.94" y2="184" stroke="#26303B"/><text class="mono muted month-label" x="250.94" y="200" font-size="8">NOV</text><line class="month-tick" x1="319.65" y1="179" x2="319.65" y2="184" stroke="#26303B"/><text class="mono muted month-label" x="319.65" y="200" font-size="8">DEC</text><line class="month-tick" x1="388.35" y1="179" x2="388.35" y2="184" stroke="#26303B"/><text class="mono muted month-label" x="388.35" y="200" font-size="8">JAN</text><line class="month-tick" x1="474.24" y1="179" x2="474.24" y2="184" stroke="#26303B"/><text class="mono muted month-label" x="474.24" y="200" font-size="8">FEB</text><line class="month-tick" x1="542.94" y1="179" x2="542.94" y2="184" stroke="#26303B"/><text class="mono muted month-label" x="542.94" y="200" font-size="8">MAR</text><line class="month-tick" x1="611.65" y1="179" x2="611.65" y2="184" stroke="#26303B"/><text class="mono muted month-label" x="611.65" y="200" font-size="8">APR</text><line class="month-tick" x1="680.35" y1="179" x2="680.35" y2="184" stroke="#26303B"/><text class="mono muted month-label" x="680.35" y="200" font-size="8">MAY</text><line class="month-tick" x1="766.24" y1="179" x2="766.24" y2="184" stroke="#26303B"/><text class="mono muted month-label" x="766.24" y="200" font-size="8">JUN</text><line class="month-tick" x1="834.94" y1="179" x2="834.94" y2="184" stroke="#26303B"/><text class="mono muted month-label" x="834.94" y="200" font-size="8">JUL</text><line class="month-tick" x1="920.82" y1="179" x2="920.82" y2="184" stroke="#26303B"/><text class="mono muted month-label" x="920.82" y="200" font-size="8">AUG</text></g><g id="history-data" data-animation="cyclic-reveal" data-build-duration="3.5s" data-hold-duration="5.0s" data-collapse-duration="1.2s" data-pause-duration="0.3s" data-cycle="10.0s"><path id="history-area" d="M 62.00 174.00 C 64.86 174.00 73.45 174.00 79.18 174.00 C 84.90 174.00 90.63 174.00 96.35 174.00 C 102.08 174.00 107.80 174.00 113.53 174.00 C 119.25 174.00 124.98 174.00 130.71 174.00 C 136.43 174.00 142.16 174.00 147.88 174.00 C 153.61 174.00 159.33 174.00 165.06 174.00 C 170.78 174.00 176.51 174.00 182.24 174.00 C 187.96 174.00 193.69 174.00 199.41 174.00 C 205.14 174.00 210.86 174.00 216.59 174.00 C 222.31 174.00 228.04 174.00 233.76 174.00 C 239.49 174.00 245.22 174.00 250.94 174.00 C 256.67 174.00 262.39 174.00 268.12 174.00 C 273.84 174.00 279.57 174.00 285.29 174.00 C 291.02 160.07 296.75 95.19 302.47 90.44 C 308.20 90.44 313.92 136.31 319.65 145.48 C 325.37 145.48 331.10 145.48 336.82 145.48 C 342.55 144.23 348.27 140.22 354.00 138.01 C 359.73 135.80 365.45 132.22 371.18 132.22 C 376.90 133.46 382.63 145.48 388.35 145.48 C 394.08 141.02 399.80 107.70 405.53 105.49 C 411.25 105.49 416.98 129.22 422.71 132.22 C 428.43 132.22 434.16 129.03 439.88 123.48 C 445.61 117.94 451.33 98.96 457.06 98.96 C 462.78 98.96 468.51 123.48 474.24 123.48 C 479.96 120.66 485.69 85.58 491.41 82.00 C 497.14 82.00 502.86 102.02 508.59 102.02 C 514.31 102.02 520.04 82.00 525.76 82.00 C 531.49 87.03 537.22 125.88 542.94 132.22 C 548.67 132.22 554.39 125.05 560.12 120.02 C 565.84 114.98 571.57 102.02 577.29 102.02 C 583.02 102.60 588.75 117.49 594.47 123.48 C 600.20 129.48 605.92 129.59 611.65 138.01 C 617.37 146.43 623.10 174.00 628.82 174.00 C 634.55 173.03 640.27 132.22 646.00 132.22 C 651.73 132.22 657.45 167.04 663.18 174.00 C 668.90 174.00 674.63 174.00 680.35 174.00 C 686.08 169.25 691.80 145.48 697.53 145.48 C 703.25 145.48 708.98 174.00 714.71 174.00 C 720.43 168.79 726.16 118.98 731.88 114.22 C 737.61 114.22 743.33 140.27 749.06 145.48 C 754.78 145.48 760.51 145.48 766.24 145.48 C 771.96 140.27 777.69 121.73 783.41 114.22 C 789.14 106.72 794.86 103.45 800.59 100.45 C 806.31 97.45 812.04 99.30 817.76 96.23 C 823.49 93.15 829.22 84.37 834.94 82.00 C 840.67 82.00 846.39 82.00 852.12 82.00 C 857.84 82.00 863.57 82.00 869.29 82.00 C 875.02 82.00 880.75 82.00 886.47 82.00 C 892.20 82.48 897.92 82.00 903.65 84.85 C 909.37 89.81 915.10 108.89 920.82 111.75 C 926.55 111.75 935.14 103.64 938.00 102.02 L 938.00 174 L 62.00 174 Z" fill="#32D6E2" opacity="0.055"/><path id="history-wave" data-week-count="52" d="M 62.00 174.00 C 64.86 174.00 73.45 174.00 79.18 174.00 C 84.90 174.00 90.63 174.00 96.35 174.00 C 102.08 174.00 107.80 174.00 113.53 174.00 C 119.25 174.00 124.98 174.00 130.71 174.00 C 136.43 174.00 142.16 174.00 147.88 174.00 C 153.61 174.00 159.33 174.00 165.06 174.00 C 170.78 174.00 176.51 174.00 182.24 174.00 C 187.96 174.00 193.69 174.00 199.41 174.00 C 205.14 174.00 210.86 174.00 216.59 174.00 C 222.31 174.00 228.04 174.00 233.76 174.00 C 239.49 174.00 245.22 174.00 250.94 174.00 C 256.67 174.00 262.39 174.00 268.12 174.00 C 273.84 174.00 279.57 174.00 285.29 174.00 C 291.02 160.07 296.75 95.19 302.47 90.44 C 308.20 90.44 313.92 136.31 319.65 145.48 C 325.37 145.48 331.10 145.48 336.82 145.48 C 342.55 144.23 348.27 140.22 354.00 138.01 C 359.73 135.80 365.45 132.22 371.18 132.22 C 376.90 133.46 382.63 145.48 388.35 145.48 C 394.08 141.02 399.80 107.70 405.53 105.49 C 411.25 105.49 416.98 129.22 422.71 132.22 C 428.43 132.22 434.16 129.03 439.88 123.48 C 445.61 117.94 451.33 98.96 457.06 98.96 C 462.78 98.96 468.51 123.48 474.24 123.48 C 479.96 120.66 485.69 85.58 491.41 82.00 C 497.14 82.00 502.86 102.02 508.59 102.02 C 514.31 102.02 520.04 82.00 525.76 82.00 C 531.49 87.03 537.22 125.88 542.94 132.22 C 548.67 132.22 554.39 125.05 560.12 120.02 C 565.84 114.98 571.57 102.02 577.29 102.02 C 583.02 102.60 588.75 117.49 594.47 123.48 C 600.20 129.48 605.92 129.59 611.65 138.01 C 617.37 146.43 623.10 174.00 628.82 174.00 C 634.55 173.03 640.27 132.22 646.00 132.22 C 651.73 132.22 657.45 167.04 663.18 174.00 C 668.90 174.00 674.63 174.00 680.35 174.00 C 686.08 169.25 691.80 145.48 697.53 145.48 C 703.25 145.48 708.98 174.00 714.71 174.00 C 720.43 168.79 726.16 118.98 731.88 114.22 C 737.61 114.22 743.33 140.27 749.06 145.48 C 754.78 145.48 760.51 145.48 766.24 145.48 C 771.96 140.27 777.69 121.73 783.41 114.22 C 789.14 106.72 794.86 103.45 800.59 100.45 C 806.31 97.45 812.04 99.30 817.76 96.23 C 823.49 93.15 829.22 84.37 834.94 82.00 C 840.67 82.00 846.39 82.00 852.12 82.00 C 857.84 82.00 863.57 82.00 869.29 82.00 C 875.02 82.00 880.75 82.00 886.47 82.00 C 892.20 82.48 897.92 82.00 903.65 84.85 C 909.37 89.81 915.10 108.89 920.82 111.75 C 926.55 111.75 935.14 103.64 938.00 102.02" fill="none" stroke="#32D6E2" stroke-width="2" stroke-linecap="round" stroke-linejoin="round"/><circle class="weekly-point" data-week="0" data-total="0" data-active-days="0" cx="62.00" cy="174.00" r="1.6" fill="#32D6E2" opacity="0.5"/><circle class="weekly-point" data-week="1" data-total="0" data-active-days="0" cx="79.18" cy="174.00" r="1.6" fill="#32D6E2" opacity="0.5"/><circle class="weekly-point" data-week="2" data-total="0" data-active-days="0" cx="96.35" cy="174.00" r="1.6" fill="#32D6E2" opacity="0.5"/><circle class="weekly-point" data-week="3" data-total="0" data-active-days="0" cx="113.53" cy="174.00" r="1.6" fill="#32D6E2" opacity="0.5"/><circle class="weekly-point" data-week="4" data-total="0" data-active-days="0" cx="130.71" cy="174.00" r="1.6" fill="#32D6E2" opacity="0.5"/><circle class="weekly-point" data-week="5" data-total="0" data-active-days="0" cx="147.88" cy="174.00" r="1.6" fill="#32D6E2" opacity="0.5"/><circle class="weekly-point" data-week="6" data-total="0" data-active-days="0" cx="165.06" cy="174.00" r="1.6" fill="#32D6E2" opacity="0.5"/><circle class="weekly-point" data-week="7" data-total="0" data-active-days="0" cx="182.24" cy="174.00" r="1.6" fill="#32D6E2" opacity="0.5"/><circle class="weekly-point" data-week="8" data-total="0" data-active-days="0" cx="199.41" cy="174.00" r="1.6" fill="#32D6E2" opacity="0.5"/><circle class="weekly-point" data-week="9" data-total="0" data-active-days="0" cx="216.59" cy="174.00" r="1.6" fill="#32D6E2" opacity="0.5"/><circle class="weekly-point" data-week="10" data-total="0" data-active-days="0" cx="233.76" cy="174.00" r="1.6" fill="#32D6E2" opacity="0.5"/><circle class="weekly-point" data-week="11" data-total="0" data-active-days="0" cx="250.94" cy="174.00" r="1.6" fill="#32D6E2" opacity="0.5"/><circle class="weekly-point" data-week="12" data-total="0" data-active-days="0" cx="268.12" cy="174.00" r="1.6" fill="#32D6E2" opacity="0.5"/><circle class="weekly-point" data-week="13" data-total="0" data-active-days="0" cx="285.29" cy="174.00" r="1.6" fill="#32D6E2" opacity="0.5"/><circle class="weekly-point" data-week="14" data-total="24" data-active-days="4" cx="302.47" cy="90.44" r="1.6" fill="#32D6E2" opacity="0.5"/><circle class="weekly-point" data-week="15" data-total="2" data-active-days="1" cx="319.65" cy="145.48" r="1.6" fill="#32D6E2" opacity="0.5"/><circle class="weekly-point" data-week="16" data-total="2" data-active-days="2" cx="336.82" cy="145.48" r="1.6" fill="#32D6E2" opacity="0.5"/><circle class="weekly-point" data-week="17" data-total="3" data-active-days="3" cx="354.00" cy="138.01" r="1.6" fill="#32D6E2" opacity="0.5"/><circle class="weekly-point" data-week="18" data-total="4" data-active-days="2" cx="371.18" cy="132.22" r="1.6" fill="#32D6E2" opacity="0.5"/><circle class="weekly-point" data-week="19" data-total="2" data-active-days="2" cx="388.35" cy="145.48" r="1.6" fill="#32D6E2" opacity="0.5"/><circle class="weekly-point" data-week="20" data-total="13" data-active-days="4" cx="405.53" cy="105.49" r="1.6" fill="#32D6E2" opacity="0.5"/><circle class="weekly-point" data-week="21" data-total="4" data-active-days="2" cx="422.71" cy="132.22" r="1.6" fill="#32D6E2" opacity="0.5"/><circle class="weekly-point" data-week="22" data-total="6" data-active-days="3" cx="439.88" cy="123.48" r="1.6" fill="#32D6E2" opacity="0.5"/><circle class="weekly-point" data-week="23" data-total="17" data-active-days="6" cx="457.06" cy="98.96" r="1.6" fill="#32D6E2" opacity="0.5"/><circle class="weekly-point" data-week="24" data-total="6" data-active-days="3" cx="474.24" cy="123.48" r="1.6" fill="#32D6E2" opacity="0.5"/><circle class="weekly-point" data-week="25" data-total="37" data-active-days="6" cx="491.41" cy="82.00" r="1.6" fill="#32D6E2" opacity="0.5"/><circle class="weekly-point" data-week="26" data-total="15" data-active-days="6" cx="508.59" cy="102.02" r="1.6" fill="#32D6E2" opacity="0.5"/><circle class="weekly-point" data-week="27" data-total="34" data-active-days="4" cx="525.76" cy="82.00" r="1.6" fill="#32D6E2" opacity="0.5"/><circle class="weekly-point" data-week="28" data-total="4" data-active-days="2" cx="542.94" cy="132.22" r="1.6" fill="#32D6E2" opacity="0.5"/><circle class="weekly-point" data-week="29" data-total="7" data-active-days="3" cx="560.12" cy="120.02" r="1.6" fill="#32D6E2" opacity="0.5"/><circle class="weekly-point" data-week="30" data-total="15" data-active-days="3" cx="577.29" cy="102.02" r="1.6" fill="#32D6E2" opacity="0.5"/><circle class="weekly-point" data-week="31" data-total="6" data-active-days="2" cx="594.47" cy="123.48" r="1.6" fill="#32D6E2" opacity="0.5"/><circle class="weekly-point" data-week="32" data-total="3" data-active-days="3" cx="611.65" cy="138.01" r="1.6" fill="#32D6E2" opacity="0.5"/><circle class="weekly-point" data-week="33" data-total="0" data-active-days="0" cx="628.82" cy="174.00" r="1.6" fill="#32D6E2" opacity="0.5"/><circle class="weekly-point" data-week="34" data-total="4" data-active-days="2" cx="646.00" cy="132.22" r="1.6" fill="#32D6E2" opacity="0.5"/><circle class="weekly-point" data-week="35" data-total="0" data-active-days="0" cx="663.18" cy="174.00" r="1.6" fill="#32D6E2" opacity="0.5"/><circle class="weekly-point" data-week="36" data-total="0" data-active-days="0" cx="680.35" cy="174.00" r="1.6" fill="#32D6E2" opacity="0.5"/><circle class="weekly-point" data-week="37" data-total="2" data-active-days="1" cx="697.53" cy="145.48" r="1.6" fill="#32D6E2" opacity="0.5"/><circle class="weekly-point" data-week="38" data-total="0" data-active-days="0" cx="714.71" cy="174.00" r="1.6" fill="#32D6E2" opacity="0.5"/><circle class="weekly-point" data-week="39" data-total="9" data-active-days="2" cx="731.88" cy="114.22" r="1.6" fill="#32D6E2" opacity="0.5"/><circle class="weekly-point" data-week="40" data-total="2" data-active-days="2" cx="749.06" cy="145.48" r="1.6" fill="#32D6E2" opacity="0.5"/><circle class="weekly-point" data-week="41" data-total="2" data-active-days="2" cx="766.24" cy="145.48" r="1.6" fill="#32D6E2" opacity="0.5"/><circle class="weekly-point" data-week="42" data-total="9" data-active-days="4" cx="783.41" cy="114.22" r="1.6" fill="#32D6E2" opacity="0.5"/><circle class="weekly-point" data-week="43" data-total="16" data-active-days="3" cx="800.59" cy="100.45" r="1.6" fill="#32D6E2" opacity="0.5"/><circle class="weekly-point" data-week="44" data-total="19" data-active-days="3" cx="817.76" cy="96.23" r="1.6" fill="#32D6E2" opacity="0.5"/><circle class="weekly-point" data-week="45" data-total="49" data-active-days="6" cx="834.94" cy="82.00" r="1.6" fill="#32D6E2" opacity="0.5"/><circle class="weekly-point" data-week="46" data-total="89" data-active-days="6" cx="852.12" cy="82.00" r="1.6" fill="#32D6E2" opacity="0.5"/><circle class="weekly-point" data-week="47" data-total="55" data-active-days="5" cx="869.29" cy="82.00" r="1.6" fill="#32D6E2" opacity="0.5"/><circle class="weekly-point" data-week="48" data-total="41" data-active-days="5" cx="886.47" cy="82.00" r="1.6" fill="#32D6E2" opacity="0.5"/><circle class="weekly-point" data-week="49" data-total="30" data-active-days="4" cx="903.65" cy="84.85" r="1.6" fill="#32D6E2" opacity="0.5"/><circle class="weekly-point" data-week="50" data-total="10" data-active-days="3" cx="920.82" cy="111.75" r="1.6" fill="#32D6E2" opacity="0.5"/><circle class="weekly-point" data-week="51" data-total="15" data-active-days="4" cx="938.00" cy="102.02" r="1.6" fill="#32D6E2" opacity="0.5"/><g id="history-peak-marker"><circle cx="852.12" cy="82.00" r="4" fill="#080B10" stroke="#32D6E2" stroke-width="1.4"/><text class="mono signal" x="852.12" y="76.00" font-size="8" text-anchor="middle">PEAK 89</text></g><g id="history-current-marker"><line x1="938.00" y1="102.02" x2="938.00" y2="174" stroke="#1B7D86" stroke-dasharray="2 4"/><text class="mono muted" x="938.00" y="216" font-size="8" text-anchor="end">CURRENT</text></g></g></svg>
