<svg xmlns="http://www.w3.org/2000/svg" width="100%" viewBox="0 0 1000 230" role="img" aria-labelledby="signal-title signal-description">
  <title id="signal-title">Makaren Signal history</title>
  <desc id="signal-description">A 52-week contribution waveform with peak and current-week markers.</desc>
  <style>
      :root { color-scheme: light; }
      .sans { font-family: -apple-system, BlinkMacSystemFont, 'Segoe UI', sans-serif; }
      .mono { font-family: ui-monospace, SFMono-Regular, Consolas, 'Liberation Mono', monospace; }
      .label { fill: #5E6B78; font-size: 11px; letter-spacing: 2px; }
      .copy { fill: #17212B; }
      .muted { fill: #5E6B78; }
      .signal { fill: #087F8C; }
      .line { stroke: #CBD5DD; }
      .final-opacity { opacity: var(--final-opacity, 1); }
      .reveal { animation: reveal var(--reveal-duration, .32s) ease-out var(--reveal-delay, 0s) both; }
      .draw { animation: draw var(--draw-duration, 1.5s) ease-out var(--draw-delay, 0s) both; }
      .connection { vector-effect: non-scaling-stroke; }
      @keyframes reveal { from { opacity: 0; } to { opacity: var(--final-opacity, 1); } }
      @keyframes draw { from { stroke-dashoffset: 1; } to { stroke-dashoffset: 0; } }
      @media (prefers-reduced-motion: reduce) {
        .motion { display: none !important; }
        .reveal { animation: none !important; opacity: var(--final-opacity, 1) !important; }
        .draw { animation: none !important; stroke-dashoffset: 0 !important; }
      }

    </style>
  <rect width="1000" height="230" fill="#F7F9FB" rx="12"/>
<g id="history-static"><text class="sans copy" x="48" y="48" font-size="25" font-weight="650" letter-spacing="1">SIGNAL HISTORY</text><text class="mono muted" x="952" y="46" font-size="9" text-anchor="end" letter-spacing="1">52 WEEKS / ROBUST LOG SCALE</text><line id="history-baseline" x1="62.00" y1="174" x2="938.00" y2="174" stroke="#CBD5DD"/><line class="month-tick" x1="62.00" y1="179" x2="62.00" y2="184" stroke="#CBD5DD"/><text class="mono muted month-label" x="62.00" y="200" font-size="8">JUL</text><line class="month-tick" x1="79.18" y1="179" x2="79.18" y2="184" stroke="#CBD5DD"/><text class="mono muted month-label" x="79.18" y="200" font-size="8">AUG</text><line class="month-tick" x1="147.88" y1="179" x2="147.88" y2="184" stroke="#CBD5DD"/><text class="mono muted month-label" x="147.88" y="200" font-size="8">SEP</text><line class="month-tick" x1="233.76" y1="179" x2="233.76" y2="184" stroke="#CBD5DD"/><text class="mono muted month-label" x="233.76" y="200" font-size="8">OCT</text><line class="month-tick" x1="302.47" y1="179" x2="302.47" y2="184" stroke="#CBD5DD"/><text class="mono muted month-label" x="302.47" y="200" font-size="8">NOV</text><line class="month-tick" x1="371.18" y1="179" x2="371.18" y2="184" stroke="#CBD5DD"/><text class="mono muted month-label" x="371.18" y="200" font-size="8">DEC</text><line class="month-tick" x1="457.06" y1="179" x2="457.06" y2="184" stroke="#CBD5DD"/><text class="mono muted month-label" x="457.06" y="200" font-size="8">JAN</text><line class="month-tick" x1="525.76" y1="179" x2="525.76" y2="184" stroke="#CBD5DD"/><text class="mono muted month-label" x="525.76" y="200" font-size="8">FEB</text><line class="month-tick" x1="594.47" y1="179" x2="594.47" y2="184" stroke="#CBD5DD"/><text class="mono muted month-label" x="594.47" y="200" font-size="8">MAR</text><line class="month-tick" x1="680.35" y1="179" x2="680.35" y2="184" stroke="#CBD5DD"/><text class="mono muted month-label" x="680.35" y="200" font-size="8">APR</text><line class="month-tick" x1="749.06" y1="179" x2="749.06" y2="184" stroke="#CBD5DD"/><text class="mono muted month-label" x="749.06" y="200" font-size="8">MAY</text><line class="month-tick" x1="817.76" y1="179" x2="817.76" y2="184" stroke="#CBD5DD"/><text class="mono muted month-label" x="817.76" y="200" font-size="8">JUN</text><line class="month-tick" x1="903.65" y1="179" x2="903.65" y2="184" stroke="#CBD5DD"/><text class="mono muted month-label" x="903.65" y="200" font-size="8">JUL</text></g><defs>
              <clipPath id="history-reveal-clip" clipPathUnits="userSpaceOnUse">
                <rect id="history-reveal-window" x="62.00" y="70" width="0" height="160">
                  <animate id="history-reveal-width" attributeName="width" values="0;876.00;876.00;0;0" keyTimes="0;0.35;0.85;0.97;1" dur="10s" repeatCount="indefinite" calcMode="linear"/>
                </rect>
              </clipPath>
              <filter id="history-scan-glow" x="-100%" y="-20%" width="300%" height="140%"><feGaussianBlur stdDeviation="1.1" result="blur"/><feMerge><feMergeNode in="blur"/><feMergeNode in="SourceGraphic"/></feMerge></filter>
            </defs><g id="history-data" data-animation="cyclic-reveal" data-build-duration="3.5s" data-hold-duration="5.0s" data-collapse-duration="1.2s" data-pause-duration="0.3s" data-cycle="10.0s" clip-path="url(#history-reveal-clip)"><path id="history-area" d="M 62.00 174.00 C 64.86 174.00 73.45 174.00 79.18 174.00 C 84.90 174.00 90.63 174.00 96.35 174.00 C 102.08 174.00 107.80 174.00 113.53 174.00 C 119.25 174.00 124.98 174.00 130.71 174.00 C 136.43 174.00 142.16 174.00 147.88 174.00 C 153.61 174.00 159.33 174.00 165.06 174.00 C 170.78 174.00 176.51 174.00 182.24 174.00 C 187.96 174.00 193.69 174.00 199.41 174.00 C 205.14 174.00 210.86 174.00 216.59 174.00 C 222.31 174.00 228.04 174.00 233.76 174.00 C 239.49 174.00 245.22 174.00 250.94 174.00 C 256.67 174.00 262.39 174.00 268.12 174.00 C 273.84 174.00 279.57 174.00 285.29 174.00 C 291.02 174.00 296.75 174.00 302.47 174.00 C 308.20 174.00 313.92 174.00 319.65 174.00 C 325.37 174.00 331.10 174.00 336.82 174.00 C 342.55 174.00 348.27 174.00 354.00 174.00 C 359.73 159.23 365.45 85.37 371.18 85.37 C 376.90 85.37 382.63 164.15 388.35 174.00 C 394.08 174.00 399.80 153.78 405.53 144.46 C 411.25 135.14 416.98 118.08 422.71 118.08 C 428.43 123.00 434.16 174.00 439.88 174.00 C 445.61 174.00 451.33 129.57 457.06 118.08 C 462.78 106.58 468.51 105.02 474.24 105.02 C 479.96 108.13 485.69 135.07 491.41 136.72 C 497.14 136.72 502.86 120.19 508.59 114.91 C 514.31 109.63 520.04 105.92 525.76 105.02 C 531.49 105.02 537.22 109.51 542.94 109.51 C 548.67 105.68 554.39 82.00 560.12 82.00 C 565.84 82.00 571.57 109.51 577.29 109.51 C 583.02 109.51 588.75 82.00 594.47 82.00 C 600.20 86.53 605.92 133.81 611.65 136.72 C 617.37 136.72 623.10 102.54 628.82 99.44 C 634.55 99.44 640.27 114.37 646.00 118.08 C 651.73 121.67 657.45 118.08 663.18 121.67 C 668.90 126.07 674.63 142.95 680.35 144.46 C 686.08 144.46 691.80 130.72 697.53 130.72 C 703.25 135.64 708.98 166.79 714.71 174.00 C 720.43 174.00 726.16 174.00 731.88 174.00 C 737.61 174.00 743.33 174.00 749.06 174.00 C 754.78 169.08 760.51 152.49 766.24 144.46 C 771.96 136.42 777.69 128.10 783.41 125.81 C 789.14 125.81 794.86 129.90 800.59 130.72 C 806.31 130.72 812.04 130.72 817.76 130.72 C 823.49 137.93 829.22 174.00 834.94 174.00 C 840.67 166.61 846.39 94.41 852.12 86.38 C 857.84 86.38 863.57 125.81 869.29 125.81 C 875.02 125.08 880.75 89.30 886.47 82.00 C 892.20 82.00 897.92 82.00 903.65 82.00 C 909.37 82.00 915.10 82.00 920.82 82.00 C 926.55 82.00 935.14 82.00 938.00 82.00 L 938.00 174 L 62.00 174 Z" fill="#087F8C" opacity="0.055"/><path id="history-wave" data-week-count="52" d="M 62.00 174.00 C 64.86 174.00 73.45 174.00 79.18 174.00 C 84.90 174.00 90.63 174.00 96.35 174.00 C 102.08 174.00 107.80 174.00 113.53 174.00 C 119.25 174.00 124.98 174.00 130.71 174.00 C 136.43 174.00 142.16 174.00 147.88 174.00 C 153.61 174.00 159.33 174.00 165.06 174.00 C 170.78 174.00 176.51 174.00 182.24 174.00 C 187.96 174.00 193.69 174.00 199.41 174.00 C 205.14 174.00 210.86 174.00 216.59 174.00 C 222.31 174.00 228.04 174.00 233.76 174.00 C 239.49 174.00 245.22 174.00 250.94 174.00 C 256.67 174.00 262.39 174.00 268.12 174.00 C 273.84 174.00 279.57 174.00 285.29 174.00 C 291.02 174.00 296.75 174.00 302.47 174.00 C 308.20 174.00 313.92 174.00 319.65 174.00 C 325.37 174.00 331.10 174.00 336.82 174.00 C 342.55 174.00 348.27 174.00 354.00 174.00 C 359.73 159.23 365.45 85.37 371.18 85.37 C 376.90 85.37 382.63 164.15 388.35 174.00 C 394.08 174.00 399.80 153.78 405.53 144.46 C 411.25 135.14 416.98 118.08 422.71 118.08 C 428.43 123.00 434.16 174.00 439.88 174.00 C 445.61 174.00 451.33 129.57 457.06 118.08 C 462.78 106.58 468.51 105.02 474.24 105.02 C 479.96 108.13 485.69 135.07 491.41 136.72 C 497.14 136.72 502.86 120.19 508.59 114.91 C 514.31 109.63 520.04 105.92 525.76 105.02 C 531.49 105.02 537.22 109.51 542.94 109.51 C 548.67 105.68 554.39 82.00 560.12 82.00 C 565.84 82.00 571.57 109.51 577.29 109.51 C 583.02 109.51 588.75 82.00 594.47 82.00 C 600.20 86.53 605.92 133.81 611.65 136.72 C 617.37 136.72 623.10 102.54 628.82 99.44 C 634.55 99.44 640.27 114.37 646.00 118.08 C 651.73 121.67 657.45 118.08 663.18 121.67 C 668.90 126.07 674.63 142.95 680.35 144.46 C 686.08 144.46 691.80 130.72 697.53 130.72 C 703.25 135.64 708.98 166.79 714.71 174.00 C 720.43 174.00 726.16 174.00 731.88 174.00 C 737.61 174.00 743.33 174.00 749.06 174.00 C 754.78 169.08 760.51 152.49 766.24 144.46 C 771.96 136.42 777.69 128.10 783.41 125.81 C 789.14 125.81 794.86 129.90 800.59 130.72 C 806.31 130.72 812.04 130.72 817.76 130.72 C 823.49 137.93 829.22 174.00 834.94 174.00 C 840.67 166.61 846.39 94.41 852.12 86.38 C 857.84 86.38 863.57 125.81 869.29 125.81 C 875.02 125.08 880.75 89.30 886.47 82.00 C 892.20 82.00 897.92 82.00 903.65 82.00 C 909.37 82.00 915.10 82.00 920.82 82.00 C 926.55 82.00 935.14 82.00 938.00 82.00" fill="none" stroke="#087F8C" stroke-width="2" stroke-linecap="round" stroke-linejoin="round"/><circle class="weekly-point" data-week="0" data-total="0" data-active-days="0" cx="62.00" cy="174.00" r="1.6" fill="#087F8C" opacity="0.5"/><circle class="weekly-point" data-week="1" data-total="0" data-active-days="0" cx="79.18" cy="174.00" r="1.6" fill="#087F8C" opacity="0.5"/><circle class="weekly-point" data-week="2" data-total="0" data-active-days="0" cx="96.35" cy="174.00" r="1.6" fill="#087F8C" opacity="0.5"/><circle class="weekly-point" data-week="3" data-total="0" data-active-days="0" cx="113.53" cy="174.00" r="1.6" fill="#087F8C" opacity="0.5"/><circle class="weekly-point" data-week="4" data-total="0" data-active-days="0" cx="130.71" cy="174.00" r="1.6" fill="#087F8C" opacity="0.5"/><circle class="weekly-point" data-week="5" data-total="0" data-active-days="0" cx="147.88" cy="174.00" r="1.6" fill="#087F8C" opacity="0.5"/><circle class="weekly-point" data-week="6" data-total="0" data-active-days="0" cx="165.06" cy="174.00" r="1.6" fill="#087F8C" opacity="0.5"/><circle class="weekly-point" data-week="7" data-total="0" data-active-days="0" cx="182.24" cy="174.00" r="1.6" fill="#087F8C" opacity="0.5"/><circle class="weekly-point" data-week="8" data-total="0" data-active-days="0" cx="199.41" cy="174.00" r="1.6" fill="#087F8C" opacity="0.5"/><circle class="weekly-point" data-week="9" data-total="0" data-active-days="0" cx="216.59" cy="174.00" r="1.6" fill="#087F8C" opacity="0.5"/><circle class="weekly-point" data-week="10" data-total="0" data-active-days="0" cx="233.76" cy="174.00" r="1.6" fill="#087F8C" opacity="0.5"/><circle class="weekly-point" data-week="11" data-total="0" data-active-days="0" cx="250.94" cy="174.00" r="1.6" fill="#087F8C" opacity="0.5"/><circle class="weekly-point" data-week="12" data-total="0" data-active-days="0" cx="268.12" cy="174.00" r="1.6" fill="#087F8C" opacity="0.5"/><circle class="weekly-point" data-week="13" data-total="0" data-active-days="0" cx="285.29" cy="174.00" r="1.6" fill="#087F8C" opacity="0.5"/><circle class="weekly-point" data-week="14" data-total="0" data-active-days="0" cx="302.47" cy="174.00" r="1.6" fill="#087F8C" opacity="0.5"/><circle class="weekly-point" data-week="15" data-total="0" data-active-days="0" cx="319.65" cy="174.00" r="1.6" fill="#087F8C" opacity="0.5"/><circle class="weekly-point" data-week="16" data-total="0" data-active-days="0" cx="336.82" cy="174.00" r="1.6" fill="#087F8C" opacity="0.5"/><circle class="weekly-point" data-week="17" data-total="0" data-active-days="0" cx="354.00" cy="174.00" r="1.6" fill="#087F8C" opacity="0.5"/><circle class="weekly-point" data-week="18" data-total="26" data-active-days="5" cx="371.18" cy="85.37" r="1.6" fill="#087F8C" opacity="0.5"/><circle class="weekly-point" data-week="19" data-total="0" data-active-days="0" cx="388.35" cy="174.00" r="1.6" fill="#087F8C" opacity="0.5"/><circle class="weekly-point" data-week="20" data-total="2" data-active-days="2" cx="405.53" cy="144.46" r="1.6" fill="#087F8C" opacity="0.5"/><circle class="weekly-point" data-week="21" data-total="7" data-active-days="5" cx="422.71" cy="118.08" r="1.6" fill="#087F8C" opacity="0.5"/><circle class="weekly-point" data-week="22" data-total="0" data-active-days="0" cx="439.88" cy="174.00" r="1.6" fill="#087F8C" opacity="0.5"/><circle class="weekly-point" data-week="23" data-total="7" data-active-days="4" cx="457.06" cy="118.08" r="1.6" fill="#087F8C" opacity="0.5"/><circle class="weekly-point" data-week="24" data-total="12" data-active-days="4" cx="474.24" cy="105.02" r="1.6" fill="#087F8C" opacity="0.5"/><circle class="weekly-point" data-week="25" data-total="3" data-active-days="2" cx="491.41" cy="136.72" r="1.6" fill="#087F8C" opacity="0.5"/><circle class="weekly-point" data-week="26" data-total="8" data-active-days="4" cx="508.59" cy="114.91" r="1.6" fill="#087F8C" opacity="0.5"/><circle class="weekly-point" data-week="27" data-total="12" data-active-days="3" cx="525.76" cy="105.02" r="1.6" fill="#087F8C" opacity="0.5"/><circle class="weekly-point" data-week="28" data-total="10" data-active-days="5" cx="542.94" cy="109.51" r="1.6" fill="#087F8C" opacity="0.5"/><circle class="weekly-point" data-week="29" data-total="39" data-active-days="6" cx="560.12" cy="82.00" r="1.6" fill="#087F8C" opacity="0.5"/><circle class="weekly-point" data-week="30" data-total="10" data-active-days="5" cx="577.29" cy="109.51" r="1.6" fill="#087F8C" opacity="0.5"/><circle class="weekly-point" data-week="31" data-total="35" data-active-days="4" cx="594.47" cy="82.00" r="1.6" fill="#087F8C" opacity="0.5"/><circle class="weekly-point" data-week="32" data-total="3" data-active-days="2" cx="611.65" cy="136.72" r="1.6" fill="#087F8C" opacity="0.5"/><circle class="weekly-point" data-week="33" data-total="15" data-active-days="4" cx="628.82" cy="99.44" r="1.6" fill="#087F8C" opacity="0.5"/><circle class="weekly-point" data-week="34" data-total="7" data-active-days="2" cx="646.00" cy="118.08" r="1.6" fill="#087F8C" opacity="0.5"/><circle class="weekly-point" data-week="35" data-total="6" data-active-days="2" cx="663.18" cy="121.67" r="1.6" fill="#087F8C" opacity="0.5"/><circle class="weekly-point" data-week="36" data-total="2" data-active-days="2" cx="680.35" cy="144.46" r="1.6" fill="#087F8C" opacity="0.5"/><circle class="weekly-point" data-week="37" data-total="4" data-active-days="2" cx="697.53" cy="130.72" r="1.6" fill="#087F8C" opacity="0.5"/><circle class="weekly-point" data-week="38" data-total="0" data-active-days="0" cx="714.71" cy="174.00" r="1.6" fill="#087F8C" opacity="0.5"/><circle class="weekly-point" data-week="39" data-total="0" data-active-days="0" cx="731.88" cy="174.00" r="1.6" fill="#087F8C" opacity="0.5"/><circle class="weekly-point" data-week="40" data-total="0" data-active-days="0" cx="749.06" cy="174.00" r="1.6" fill="#087F8C" opacity="0.5"/><circle class="weekly-point" data-week="41" data-total="2" data-active-days="1" cx="766.24" cy="144.46" r="1.6" fill="#087F8C" opacity="0.5"/><circle class="weekly-point" data-week="42" data-total="5" data-active-days="1" cx="783.41" cy="125.81" r="1.6" fill="#087F8C" opacity="0.5"/><circle class="weekly-point" data-week="43" data-total="4" data-active-days="1" cx="800.59" cy="130.72" r="1.6" fill="#087F8C" opacity="0.5"/><circle class="weekly-point" data-week="44" data-total="4" data-active-days="4" cx="817.76" cy="130.72" r="1.6" fill="#087F8C" opacity="0.5"/><circle class="weekly-point" data-week="45" data-total="0" data-active-days="0" cx="834.94" cy="174.00" r="1.6" fill="#087F8C" opacity="0.5"/><circle class="weekly-point" data-week="46" data-total="25" data-active-days="7" cx="852.12" cy="86.38" r="1.6" fill="#087F8C" opacity="0.5"/><circle class="weekly-point" data-week="47" data-total="5" data-active-days="1" cx="869.29" cy="125.81" r="1.6" fill="#087F8C" opacity="0.5"/><circle class="weekly-point" data-week="48" data-total="30" data-active-days="4" cx="886.47" cy="82.00" r="1.6" fill="#087F8C" opacity="0.5"/><circle class="weekly-point" data-week="49" data-total="57" data-active-days="6" cx="903.65" cy="82.00" r="1.6" fill="#087F8C" opacity="0.5"/><circle class="weekly-point" data-week="50" data-total="91" data-active-days="7" cx="920.82" cy="82.00" r="1.6" fill="#087F8C" opacity="0.5"/><circle class="weekly-point" data-week="51" data-total="30" data-active-days="3" cx="938.00" cy="82.00" r="1.6" fill="#087F8C" opacity="0.5"/><g id="history-peak-marker"><circle cx="920.82" cy="82.00" r="4" fill="#F7F9FB" stroke="#087F8C" stroke-width="1.4"/><text class="mono signal" x="920.82" y="76.00" font-size="8" text-anchor="middle">PEAK 91</text></g><g id="history-current-marker"><line x1="938.00" y1="82.00" x2="938.00" y2="174" stroke="#55B8C1" stroke-dasharray="2 4"/><text class="mono muted" x="938.00" y="216" font-size="8" text-anchor="end">CURRENT</text></g></g><line id="history-scan-front" class="motion" x1="62.00" y1="70" x2="62.00" y2="177" stroke="#087F8C" stroke-width="1.2" opacity="0.72" filter="url(#history-scan-glow)">
              <animate attributeName="x1" values="62.00;938.00;938.00;62.00;62.00" keyTimes="0;0.35;0.85;0.97;1" dur="10s" repeatCount="indefinite" calcMode="linear"/>
              <animate attributeName="x2" values="62.00;938.00;938.00;62.00;62.00" keyTimes="0;0.35;0.85;0.97;1" dur="10s" repeatCount="indefinite" calcMode="linear"/>
              <animate attributeName="opacity" values="0.72;0;0.72;0;0" keyTimes="0;0.35;0.85;0.97;1" dur="10s" repeatCount="indefinite" calcMode="discrete"/>
            </line></svg>
